<svg width="445" height="245" viewBox="0 0 445 245" fill="none" xmlns="http://www.w3.org/2000/svg">
<g clip-path="url(#clip0_2_1365)">
<rect width="445" height="245" rx="10" fill="white"/>
<path d="M356.067 30.2223V24.86H356.729V29.593H359.217V30.2223H356.067ZM360.99 30.334C360.69 30.334 360.438 30.2794 360.234 30.1702C360.033 30.0585 359.88 29.912 359.776 29.7308C359.674 29.5495 359.623 29.3509 359.623 29.135C359.623 28.9239 359.663 28.7415 359.743 28.5876C359.824 28.4311 359.939 28.3021 360.085 28.2003C360.232 28.096 360.407 28.0141 360.61 27.9545C360.801 27.9024 361.015 27.8577 361.251 27.8204C361.489 27.7807 361.73 27.7447 361.973 27.7124C362.216 27.6802 362.444 27.6491 362.655 27.6193L362.416 27.7571C362.424 27.3996 362.352 27.1352 362.2 26.964C362.051 26.7927 361.793 26.707 361.426 26.707C361.182 26.707 360.969 26.7629 360.785 26.8746C360.604 26.9838 360.476 27.1626 360.402 27.4108L359.772 27.2209C359.869 26.8684 360.057 26.5916 360.335 26.3905C360.613 26.1894 360.979 26.0888 361.433 26.0888C361.798 26.0888 362.111 26.1546 362.372 26.2862C362.635 26.4153 362.823 26.6114 362.938 26.8746C362.995 26.9987 363.031 27.134 363.046 27.2805C363.06 27.4245 363.068 27.5759 363.068 27.7348V30.2223H362.48V29.2578L362.617 29.3472C362.466 29.6724 362.254 29.9182 361.981 30.0845C361.71 30.2509 361.38 30.334 360.99 30.334ZM361.091 29.7792C361.329 29.7792 361.535 29.737 361.709 29.6526C361.885 29.5657 362.027 29.4527 362.133 29.3137C362.24 29.1722 362.31 29.0183 362.342 28.8519C362.379 28.7278 362.399 28.59 362.401 28.4386C362.406 28.2847 362.409 28.1668 362.409 28.0848L362.64 28.1854C362.424 28.2152 362.211 28.2437 362.003 28.271C361.794 28.2983 361.597 28.3281 361.411 28.3604C361.225 28.3902 361.057 28.4262 360.908 28.4684C360.799 28.5031 360.696 28.5478 360.599 28.6024C360.505 28.6571 360.428 28.7278 360.368 28.8147C360.311 28.8991 360.282 29.0046 360.282 29.1312C360.282 29.2405 360.31 29.3447 360.364 29.444C360.422 29.5433 360.508 29.624 360.625 29.6861C360.744 29.7482 360.899 29.7792 361.091 29.7792ZM365.555 30.3303C365.076 30.3303 364.683 30.226 364.375 30.0175C364.07 29.8065 363.882 29.5123 363.813 29.135L364.49 29.027C364.545 29.2454 364.67 29.4192 364.867 29.5483C365.063 29.6749 365.306 29.7382 365.596 29.7382C365.872 29.7382 366.088 29.6811 366.244 29.5669C366.401 29.4527 366.479 29.2976 366.479 29.1014C366.479 28.9872 366.453 28.8954 366.401 28.8259C366.349 28.7539 366.241 28.6869 366.077 28.6248C365.915 28.5627 365.671 28.4882 365.343 28.4014C364.988 28.307 364.709 28.209 364.505 28.1072C364.302 28.0054 364.157 27.8875 364.07 27.7534C363.983 27.6193 363.939 27.4567 363.939 27.2656C363.939 27.0297 364.004 26.8237 364.133 26.6474C364.262 26.4687 364.442 26.3309 364.673 26.2341C364.906 26.1373 365.177 26.0888 365.485 26.0888C365.79 26.0888 366.063 26.1373 366.304 26.2341C366.545 26.3309 366.738 26.4687 366.885 26.6474C367.034 26.8237 367.122 27.0297 367.149 27.2656L366.472 27.3885C366.439 27.1725 366.335 27.0024 366.159 26.8783C365.985 26.7542 365.76 26.6884 365.485 26.6809C365.224 26.671 365.012 26.7169 364.848 26.8187C364.687 26.9205 364.606 27.0583 364.606 27.2321C364.606 27.3289 364.636 27.4121 364.695 27.4816C364.757 27.5511 364.87 27.6169 365.034 27.6789C365.2 27.741 365.441 27.8117 365.757 27.8912C366.112 27.9806 366.391 28.0786 366.594 28.1854C366.8 28.2896 366.947 28.4138 367.034 28.5578C367.121 28.6993 367.164 28.8743 367.164 29.0828C367.164 29.4701 367.021 29.7755 366.736 29.9989C366.45 30.2198 366.057 30.3303 365.555 30.3303ZM370.231 30.2223C369.993 30.2695 369.757 30.2881 369.523 30.2782C369.293 30.2707 369.086 30.2248 368.905 30.1404C368.724 30.0535 368.586 29.9194 368.492 29.7382C368.412 29.5793 368.369 29.4192 368.362 29.2578C368.357 29.094 368.354 28.909 368.354 28.703V25.0834H369.017V28.6732C369.017 28.837 369.018 28.9773 369.021 29.094C369.026 29.2107 369.052 29.3112 369.099 29.3956C369.188 29.5545 369.33 29.6476 369.523 29.6749C369.72 29.7022 369.955 29.6948 370.231 29.6526V30.2223ZM367.539 26.748V26.2006H370.231V26.748H367.539ZM372.821 30.2223L374.75 25.4968H372.315V24.86H375.462V25.4968L373.536 30.2223H372.821ZM382.655 30.2223L382.659 27.6491C382.659 27.3487 382.578 27.1141 382.417 26.9453C382.258 26.774 382.051 26.6884 381.795 26.6884C381.646 26.6884 381.505 26.7231 381.371 26.7927C381.237 26.8597 381.127 26.9664 381.043 27.1129C380.958 27.2569 380.916 27.4418 380.916 27.6678L380.566 27.5263C380.561 27.2408 380.62 26.9913 380.741 26.7778C380.865 26.5618 381.034 26.3942 381.248 26.275C381.461 26.1559 381.702 26.0963 381.97 26.0963C382.39 26.0963 382.72 26.2241 382.961 26.4799C383.201 26.7331 383.322 27.0744 383.322 27.5039L383.318 30.2223H382.655ZM377.844 30.2223V26.2006H378.436V27.2768H378.511V30.2223H377.844ZM380.253 30.2223L380.257 27.6752C380.257 27.3674 380.178 27.1266 380.019 26.9528C379.86 26.7765 379.649 26.6884 379.386 26.6884C379.125 26.6884 378.914 26.7778 378.753 26.9565C378.591 27.1352 378.511 27.3723 378.511 27.6678L378.161 27.4592C378.161 27.1986 378.223 26.9652 378.347 26.7591C378.471 26.5531 378.64 26.3917 378.853 26.275C379.067 26.1559 379.309 26.0963 379.579 26.0963C379.85 26.0963 380.086 26.1534 380.287 26.2676C380.488 26.3818 380.643 26.5456 380.752 26.7591C380.862 26.9702 380.916 27.2221 380.916 27.5151L380.913 30.2223H380.253ZM385.968 30.334C385.569 30.334 385.224 30.2434 384.933 30.0622C384.645 29.881 384.423 29.6302 384.267 29.31C384.11 28.9897 384.032 28.6223 384.032 28.2077C384.032 27.7857 384.111 27.4158 384.27 27.098C384.429 26.7802 384.654 26.5332 384.944 26.357C385.235 26.1782 385.576 26.0888 385.968 26.0888C386.371 26.0888 386.717 26.1795 387.007 26.3607C387.298 26.5394 387.52 26.7889 387.674 27.1092C387.83 27.427 387.909 27.7931 387.909 28.2077C387.909 28.6273 387.83 28.9972 387.674 29.3174C387.518 29.6352 387.294 29.8847 387.004 30.0659C386.713 30.2447 386.368 30.334 385.968 30.334ZM385.968 29.7047C386.386 29.7047 386.696 29.5657 386.899 29.2876C387.103 29.0096 387.205 28.6496 387.205 28.2077C387.205 27.7534 387.102 27.3922 386.896 27.1241C386.69 26.8535 386.381 26.7182 385.968 26.7182C385.688 26.7182 385.457 26.7815 385.276 26.9081C385.095 27.0347 384.959 27.2097 384.87 27.4332C384.781 27.6566 384.736 27.9148 384.736 28.2077C384.736 28.6595 384.84 29.022 385.049 29.2951C385.257 29.5682 385.564 29.7047 385.968 29.7047ZM391.592 30.2223V28.2077C391.592 28.0166 391.575 27.8329 391.54 27.6566C391.508 27.4803 391.449 27.3227 391.365 27.1837C391.283 27.0422 391.171 26.9304 391.03 26.8485C390.891 26.7666 390.715 26.7256 390.501 26.7256C390.335 26.7256 390.183 26.7542 390.047 26.8113C389.913 26.8659 389.797 26.9503 389.7 27.0645C389.604 27.1787 389.528 27.3227 389.473 27.4965C389.421 27.6678 389.395 27.8701 389.395 28.1035L388.959 27.9694C388.959 27.5796 389.029 27.2457 389.168 26.9677C389.309 26.6871 389.507 26.4724 389.76 26.3234C390.016 26.172 390.316 26.0963 390.661 26.0963C390.922 26.0963 391.144 26.1373 391.328 26.2192C391.511 26.3011 391.664 26.4103 391.786 26.5469C391.907 26.6809 392.003 26.8324 392.072 27.0012C392.142 27.1675 392.19 27.3376 392.218 27.5114C392.247 27.6827 392.262 27.8453 392.262 27.9992V30.2223H391.592ZM388.725 30.2223V26.2006H389.321V27.2768H389.395V30.2223H388.725ZM395.476 30.2223C395.238 30.2695 395.002 30.2881 394.768 30.2782C394.538 30.2707 394.332 30.2248 394.15 30.1404C393.969 30.0535 393.831 29.9194 393.737 29.7382C393.658 29.5793 393.614 29.4192 393.607 29.2578C393.602 29.094 393.599 28.909 393.599 28.703V25.0834H394.262V28.6732C394.262 28.837 394.263 28.9773 394.266 29.094C394.271 29.2107 394.297 29.3112 394.344 29.3956C394.433 29.5545 394.575 29.6476 394.768 29.6749C394.965 29.7022 395.2 29.6948 395.476 29.6526V30.2223ZM392.784 26.748V26.2006H395.476V26.748H392.784ZM399.156 30.2223V28.2077C399.156 28.0166 399.139 27.8329 399.104 27.6566C399.072 27.4803 399.013 27.3227 398.929 27.1837C398.847 27.0422 398.735 26.9304 398.594 26.8485C398.455 26.7666 398.279 26.7256 398.065 26.7256C397.899 26.7256 397.747 26.7542 397.611 26.8113C397.477 26.8659 397.361 26.9503 397.264 27.0645C397.168 27.1787 397.092 27.3227 397.037 27.4965C396.985 27.6678 396.959 27.8701 396.959 28.1035L396.523 27.9694C396.523 27.5796 396.593 27.2457 396.732 26.9677C396.873 26.6871 397.071 26.4724 397.324 26.3234C397.58 26.172 397.88 26.0963 398.225 26.0963C398.486 26.0963 398.708 26.1373 398.892 26.2192C399.075 26.3011 399.228 26.4103 399.35 26.5469C399.471 26.6809 399.567 26.8324 399.637 27.0012C399.706 27.1675 399.754 27.3376 399.782 27.5114C399.812 27.6827 399.826 27.8453 399.826 27.9992V30.2223H399.156ZM396.289 30.2223V24.86H396.885V27.8204H396.959V30.2223H396.289Z" fill="black"/>
<path d="M414.745 23.6019H408.539C407.968 23.6019 407.505 24.065 407.505 24.6363V30.8427C407.505 31.414 407.968 31.8772 408.539 31.8772H414.745C415.317 31.8772 415.78 31.414 415.78 30.8427V24.6363C415.78 24.065 415.317 23.6019 414.745 23.6019Z" stroke="black" stroke-opacity="0.3" stroke-width="0.930962" stroke-linecap="round" stroke-linejoin="round"/>
<path d="M413.711 22.5675V24.6363" stroke="black" stroke-opacity="0.3" stroke-width="0.930962" stroke-linecap="round" stroke-linejoin="round"/>
<path d="M409.573 22.5675V24.6363" stroke="black" stroke-opacity="0.3" stroke-width="0.930962" stroke-linecap="round" stroke-linejoin="round"/>
<path d="M407.505 26.7051H415.78" stroke="black" stroke-opacity="0.3" stroke-width="0.930962" stroke-linecap="round" stroke-linejoin="round"/>
<path d="M411.125 28.7739H411.642" stroke="black" stroke-opacity="0.3" stroke-width="1.24128" stroke-linecap="round" stroke-linejoin="round"/>
<path d="M411.642 28.7739V30.3255" stroke="black" stroke-opacity="0.3" stroke-width="0.930962" stroke-linecap="round" stroke-linejoin="round"/>
<rect x="348.333" y="15.1589" width="76.6527" height="24.1268" rx="4.65481" stroke="black" stroke-opacity="0.19" stroke-width="0.620642"/>
<path d="M22.3599 97.3652C21.9631 97.3652 21.6025 97.2696 21.2781 97.0785C20.9566 96.8873 20.7003 96.6267 20.5092 96.2965C20.3209 95.9634 20.2268 95.5883 20.2268 95.1713V93.0902C20.2268 92.6529 20.3209 92.2662 20.5092 91.9303C20.7003 91.5914 20.961 91.3278 21.2912 91.1396C21.6242 90.9484 22.0037 90.8528 22.4294 90.8528C22.7741 90.8528 23.0941 90.9238 23.3895 91.0657C23.6879 91.2047 23.9384 91.406 24.1411 91.6696L23.5633 92.1822C23.4388 91.9998 23.2766 91.855 23.0767 91.7478C22.8769 91.6406 22.6611 91.5871 22.4294 91.5871C22.1543 91.5871 21.9095 91.6537 21.6952 91.7869C21.4838 91.9172 21.3172 92.091 21.1956 92.3082C21.0739 92.5226 21.0131 92.7543 21.0131 93.0034V94.2589L20.8437 94.0678C21.0261 93.8071 21.2579 93.5986 21.5388 93.4422C21.8197 93.2858 22.1239 93.2075 22.4511 93.2075C22.8392 93.2075 23.1868 93.2988 23.4938 93.4813C23.8037 93.6637 24.047 93.9114 24.2237 94.2242C24.4033 94.5341 24.4931 94.8831 24.4931 95.2712C24.4931 95.6593 24.396 96.0112 24.202 96.3269C24.0079 96.6426 23.7487 96.8946 23.4243 97.0828C23.1028 97.2711 22.748 97.3652 22.3599 97.3652ZM22.3599 96.618C22.609 96.618 22.8364 96.5586 23.042 96.4399C23.2476 96.3182 23.4098 96.156 23.5286 95.9533C23.6502 95.7476 23.711 95.5203 23.711 95.2712C23.711 95.0221 23.6502 94.7947 23.5286 94.5891C23.4098 94.3835 23.2476 94.2213 23.042 94.1025C22.8392 93.9809 22.6133 93.92 22.3642 93.92C22.1152 93.92 21.8878 93.9809 21.6822 94.1025C21.4794 94.2213 21.3172 94.3835 21.1956 94.5891C21.0739 94.7947 21.0131 95.0221 21.0131 95.2712C21.0131 95.5174 21.0725 95.7433 21.1912 95.9489C21.3129 96.1517 21.4751 96.3139 21.6778 96.4355C21.8835 96.5572 22.1108 96.618 22.3599 96.618ZM27.7349 97.3652C27.3294 97.3652 26.9673 97.274 26.6487 97.0915C26.333 96.9062 26.0825 96.6556 25.8971 96.3399C25.7147 96.0213 25.6234 95.6593 25.6234 95.2538V92.9599C25.6234 92.5544 25.7147 92.1924 25.8971 91.8738C26.0825 91.5552 26.333 91.3047 26.6487 91.1222C26.9673 90.9397 27.3294 90.8485 27.7349 90.8485C28.1403 90.8485 28.5024 90.9397 28.821 91.1222C29.1396 91.3047 29.3901 91.5552 29.5726 91.8738C29.755 92.1924 29.8463 92.5544 29.8463 92.9599V95.2538C29.8463 95.6593 29.755 96.0213 29.5726 96.3399C29.3901 96.6556 29.1396 96.9062 28.821 97.0915C28.5024 97.274 28.1403 97.3652 27.7349 97.3652ZM27.7349 96.6223C27.981 96.6223 28.2041 96.5629 28.4039 96.4442C28.6038 96.3254 28.7631 96.1661 28.8818 95.9663C29.0006 95.7636 29.0599 95.5405 29.0599 95.2973V92.9121C29.0599 92.6659 29.0006 92.4429 28.8818 92.2431C28.7631 92.0432 28.6038 91.8839 28.4039 91.7652C28.2041 91.6464 27.981 91.5871 27.7349 91.5871C27.4916 91.5871 27.2685 91.6464 27.0658 91.7652C26.866 91.8839 26.7067 92.0432 26.5879 92.2431C26.4692 92.4429 26.4098 92.6659 26.4098 92.9121V95.2973C26.4098 95.5405 26.4692 95.7636 26.5879 95.9663C26.7067 96.1661 26.866 96.3254 27.0658 96.4442C27.2685 96.5629 27.4916 96.6223 27.7349 96.6223ZM31.0582 97.2349L31.0625 90.9788H31.8445V94.802L33.8126 92.5428H34.8162L32.7439 94.8889L35.0595 97.2349H33.9777L31.8445 94.9758V97.2349H31.0582Z" fill="black"/>
<path d="M22.0775 132.501C21.756 132.501 21.4563 132.434 21.1782 132.301C20.9031 132.168 20.667 131.985 20.4701 131.753C20.276 131.519 20.137 131.25 20.053 130.945L20.7959 130.746C20.848 130.951 20.9407 131.129 21.0739 131.28C21.2072 131.428 21.3621 131.544 21.5388 131.628C21.7184 131.709 21.9052 131.749 22.0992 131.749C22.3541 131.749 22.5829 131.688 22.7857 131.567C22.9913 131.442 23.1535 131.278 23.2722 131.076C23.391 130.87 23.4504 130.646 23.4504 130.402C23.4504 130.15 23.3881 129.923 23.2636 129.72C23.1419 129.515 22.9783 129.352 22.7726 129.234C22.567 129.115 22.3425 129.056 22.0992 129.056C21.8241 129.056 21.588 129.113 21.3911 129.229C21.197 129.342 21.0435 129.481 20.9306 129.646L20.2441 129.386L20.4353 126.114H23.7936V126.849H20.8089L21.1521 126.527L20.9914 129.147L20.822 128.925C20.9957 128.74 21.2028 128.596 21.4432 128.495C21.6865 128.394 21.9341 128.343 22.1861 128.343C22.5742 128.343 22.9218 128.434 23.2288 128.617C23.5358 128.796 23.7791 129.043 23.9587 129.355C24.1382 129.665 24.228 130.014 24.228 130.402C24.228 130.788 24.1296 131.139 23.9326 131.458C23.7357 131.774 23.4735 132.027 23.1463 132.218C22.8219 132.407 22.4656 132.501 22.0775 132.501ZM27.3785 132.501C26.973 132.501 26.6109 132.41 26.2923 132.227C25.9766 132.042 25.7261 131.791 25.5408 131.475C25.3583 131.157 25.267 130.795 25.267 130.389V128.095C25.267 127.69 25.3583 127.328 25.5408 127.009C25.7261 126.691 25.9766 126.44 26.2923 126.258C26.6109 126.075 26.973 125.984 27.3785 125.984C27.784 125.984 28.146 126.075 28.4646 126.258C28.7832 126.44 29.0337 126.691 29.2162 127.009C29.3987 127.328 29.4899 127.69 29.4899 128.095V130.389C29.4899 130.795 29.3987 131.157 29.2162 131.475C29.0337 131.791 28.7832 132.042 28.4646 132.227C28.146 132.41 27.784 132.501 27.3785 132.501ZM27.3785 131.758C27.6247 131.758 27.8477 131.698 28.0475 131.58C28.2474 131.461 28.4067 131.302 28.5254 131.102C28.6442 130.899 28.7035 130.676 28.7035 130.433V128.048C28.7035 127.801 28.6442 127.578 28.5254 127.379C28.4067 127.179 28.2474 127.019 28.0475 126.901C27.8477 126.782 27.6247 126.723 27.3785 126.723C27.1352 126.723 26.9122 126.782 26.7094 126.901C26.5096 127.019 26.3503 127.179 26.2315 127.379C26.1128 127.578 26.0534 127.801 26.0534 128.048V130.433C26.0534 130.676 26.1128 130.899 26.2315 131.102C26.3503 131.302 26.5096 131.461 26.7094 131.58C26.9122 131.698 27.1352 131.758 27.3785 131.758ZM30.7018 132.37L30.7061 126.114H31.4882V129.937L33.4562 127.678H34.4598L32.3875 130.024L34.7031 132.37H33.6213L31.4882 130.111V132.37H30.7018Z" fill="black"/>
<path d="M22.929 167.506V166.355H20.053V165.62L22.1166 161.25H22.9942L20.9306 165.62H22.929V163.861H23.711V165.62H24.3627V166.355H23.711V167.506H22.929ZM27.5142 167.636C27.1088 167.636 26.7467 167.545 26.4281 167.363C26.1124 167.177 25.8619 166.927 25.6765 166.611C25.494 166.292 25.4028 165.93 25.4028 165.525V163.231C25.4028 162.825 25.494 162.463 25.6765 162.145C25.8619 161.826 26.1124 161.576 26.4281 161.393C26.7467 161.211 27.1088 161.12 27.5142 161.12C27.9197 161.12 28.2818 161.211 28.6004 161.393C28.919 161.576 29.1695 161.826 29.352 162.145C29.5344 162.463 29.6257 162.825 29.6257 163.231V165.525C29.6257 165.93 29.5344 166.292 29.352 166.611C29.1695 166.927 28.919 167.177 28.6004 167.363C28.2818 167.545 27.9197 167.636 27.5142 167.636ZM27.5142 166.893C27.7604 166.893 27.9834 166.834 28.1833 166.715C28.3831 166.596 28.5424 166.437 28.6612 166.237C28.7799 166.035 28.8393 165.812 28.8393 165.568V163.183C28.8393 162.937 28.7799 162.714 28.6612 162.514C28.5424 162.314 28.3831 162.155 28.1833 162.036C27.9834 161.917 27.7604 161.858 27.5142 161.858C27.2709 161.858 27.0479 161.917 26.8452 162.036C26.6453 162.155 26.486 162.314 26.3673 162.514C26.2485 162.714 26.1892 162.937 26.1892 163.183V165.568C26.1892 165.812 26.2485 166.035 26.3673 166.237C26.486 166.437 26.6453 166.596 26.8452 166.715C27.0479 166.834 27.2709 166.893 27.5142 166.893ZM30.8376 167.506L30.8419 161.25H31.6239V165.073L33.592 162.814H34.5956L32.5232 165.16L34.8388 167.506H33.7571L31.6239 165.247V167.506H30.8376Z" fill="black"/>
<path d="M21.9428 202.763C21.6329 202.763 21.3447 202.707 21.0783 202.594C20.8118 202.478 20.5816 202.316 20.3875 202.107C20.1963 201.896 20.0559 201.645 19.9661 201.355L20.709 201.143C20.8046 201.432 20.9639 201.652 21.1869 201.803C21.4099 201.954 21.6604 202.027 21.9385 202.025C22.1934 202.019 22.4135 201.961 22.5989 201.851C22.7871 201.738 22.9319 201.584 23.0333 201.39C23.1376 201.196 23.1897 200.972 23.1897 200.717C23.1897 200.329 23.0738 200.014 22.8421 199.774C22.6104 199.531 22.3063 199.409 21.9298 199.409C21.8255 199.409 21.7155 199.424 21.5996 199.453C21.4867 199.482 21.3809 199.522 21.2825 199.574L20.9088 198.962L23.2288 196.863L23.3287 197.124H20.2137V196.385H23.9022V197.128L21.9255 199.022L21.9168 198.749C22.3309 198.72 22.693 198.788 23.0029 198.953C23.3128 199.118 23.5532 199.354 23.7241 199.661C23.8979 199.968 23.9847 200.32 23.9847 200.717C23.9847 201.117 23.895 201.47 23.7154 201.777C23.5358 202.084 23.2925 202.326 22.9855 202.502C22.6785 202.676 22.3309 202.763 21.9428 202.763ZM27.2257 202.772C26.8202 202.772 26.4582 202.681 26.1396 202.498C25.8239 202.313 25.5734 202.062 25.388 201.746C25.2055 201.428 25.1143 201.066 25.1143 200.66V198.366C25.1143 197.961 25.2055 197.599 25.388 197.28C25.5734 196.962 25.8239 196.711 26.1396 196.529C26.4582 196.346 26.8202 196.255 27.2257 196.255C27.6312 196.255 27.9933 196.346 28.3119 196.529C28.6305 196.711 28.881 196.962 29.0635 197.28C29.2459 197.599 29.3372 197.961 29.3372 198.366V200.66C29.3372 201.066 29.2459 201.428 29.0635 201.746C28.881 202.062 28.6305 202.313 28.3119 202.498C27.9933 202.681 27.6312 202.772 27.2257 202.772ZM27.2257 202.029C27.4719 202.029 27.6949 201.97 27.8948 201.851C28.0946 201.732 28.2539 201.573 28.3727 201.373C28.4914 201.17 28.5508 200.947 28.5508 200.704V198.319C28.5508 198.072 28.4914 197.849 28.3727 197.65C28.2539 197.45 28.0946 197.29 27.8948 197.172C27.6949 197.053 27.4719 196.994 27.2257 196.994C26.9824 196.994 26.7594 197.053 26.5567 197.172C26.3568 197.29 26.1975 197.45 26.0788 197.65C25.96 197.849 25.9007 198.072 25.9007 198.319V200.704C25.9007 200.947 25.96 201.17 26.0788 201.373C26.1975 201.573 26.3568 201.732 26.5567 201.851C26.7594 201.97 26.9824 202.029 27.2257 202.029ZM30.5491 202.641L30.5534 196.385H31.3354V200.209L33.3035 197.949H34.3071L32.2347 200.295L34.5503 202.641H33.4686L31.3354 200.382V202.641H30.5491Z" fill="black"/>
<path d="M57.5955 226.472C57.1582 226.472 56.7874 226.353 56.4833 226.116C56.1792 225.878 55.9707 225.56 55.8577 225.16L56.6267 224.978C56.673 225.189 56.7846 225.369 56.9612 225.516C57.1408 225.664 57.3464 225.738 57.5781 225.738C57.7288 225.738 57.8823 225.702 58.0387 225.629C58.1951 225.554 58.3153 225.432 58.3993 225.264C58.4572 225.148 58.4905 225.021 58.4992 224.882C58.5079 224.74 58.5122 224.573 58.5122 224.382V220.09H59.2942V224.382C59.2942 224.562 59.2928 224.723 59.2899 224.865C59.2899 225.006 59.2754 225.143 59.2464 225.273C59.2204 225.4 59.1682 225.531 59.09 225.664C58.9336 225.939 58.7236 226.143 58.4601 226.277C58.1994 226.407 57.9112 226.472 57.5955 226.472ZM61.9321 226.476C61.5816 226.476 61.2876 226.413 61.0501 226.285C60.8155 226.155 60.6374 225.984 60.5158 225.773C60.397 225.561 60.3376 225.329 60.3376 225.077C60.3376 224.831 60.384 224.618 60.4767 224.439C60.5722 224.256 60.7055 224.106 60.8764 223.987C61.0472 223.865 61.2514 223.77 61.4889 223.7C61.712 223.639 61.961 223.587 62.2362 223.544C62.5142 223.497 62.7952 223.455 63.079 223.418C63.3629 223.38 63.6279 223.344 63.8741 223.309L63.596 223.47C63.6047 223.053 63.5207 222.744 63.344 222.545C63.1703 222.345 62.869 222.245 62.4404 222.245C62.1565 222.245 61.9075 222.31 61.6931 222.44C61.4817 222.568 61.3325 222.776 61.2456 223.066L60.5114 222.844C60.6244 222.433 60.8431 222.11 61.1674 221.876C61.4918 221.641 61.919 221.524 62.4491 221.524C62.8748 221.524 63.2398 221.6 63.5439 221.754C63.8509 221.905 64.071 222.133 64.2042 222.44C64.2709 222.585 64.3129 222.743 64.3302 222.914C64.3476 223.082 64.3563 223.259 64.3563 223.444V226.346H63.6699V225.221L63.8306 225.325C63.6539 225.704 63.4063 225.991 63.0877 226.185C62.772 226.379 62.3868 226.476 61.9321 226.476ZM62.0494 225.829C62.3274 225.829 62.5678 225.78 62.7706 225.681C62.9762 225.58 63.1413 225.448 63.2658 225.286C63.3904 225.121 63.4715 224.941 63.5091 224.747C63.5526 224.602 63.5757 224.442 63.5786 224.265C63.5844 224.085 63.5873 223.948 63.5873 223.852L63.8567 223.97C63.6047 224.004 63.3571 224.038 63.1138 224.07C62.8705 224.101 62.6402 224.136 62.423 224.174C62.2058 224.209 62.0103 224.251 61.8365 224.3C61.7091 224.34 61.5889 224.392 61.4759 224.456C61.3658 224.52 61.2761 224.602 61.2065 224.704C61.1399 224.802 61.1066 224.925 61.1066 225.073C61.1066 225.201 61.1385 225.322 61.2022 225.438C61.2688 225.554 61.3702 225.648 61.5063 225.72C61.6453 225.793 61.8264 225.829 62.0494 225.829ZM68.8268 226.346V223.996C68.8268 223.773 68.8065 223.558 68.766 223.353C68.7283 223.147 68.6602 222.963 68.5618 222.801C68.4662 222.636 68.3359 222.505 68.1708 222.41C68.0086 222.314 67.8029 222.267 67.5538 222.267C67.3598 222.267 67.1831 222.3 67.0238 222.366C66.8674 222.43 66.7327 222.529 66.6198 222.662C66.5068 222.795 66.4185 222.963 66.3548 223.166C66.2939 223.366 66.2635 223.602 66.2635 223.874L65.7552 223.718C65.7552 223.263 65.8363 222.873 65.9985 222.549C66.1636 222.222 66.3939 221.971 66.6893 221.797C66.9876 221.621 67.3381 221.532 67.7407 221.532C68.0448 221.532 68.304 221.58 68.5183 221.676C68.7327 221.771 68.9108 221.899 69.0527 222.058C69.1946 222.214 69.3061 222.391 69.3872 222.588C69.4683 222.782 69.5248 222.98 69.5567 223.183C69.5914 223.383 69.6088 223.573 69.6088 223.752V226.346H68.8268ZM65.4815 226.346V221.654H66.1766V222.91H66.2635V226.346H65.4815Z" fill="black"/>
<path d="M114.272 226.346V220.09H117.921V220.863H115.045V222.831H117.4V223.605H115.045V226.346H114.272ZM120.607 226.476C120.146 226.476 119.744 226.375 119.399 226.172C119.057 225.967 118.791 225.681 118.6 225.316C118.409 224.949 118.313 224.52 118.313 224.03C118.313 223.518 118.407 223.075 118.595 222.701C118.784 222.324 119.046 222.035 119.382 221.832C119.721 221.626 120.117 221.524 120.572 221.524C121.044 221.524 121.445 221.632 121.776 221.849C122.109 222.067 122.358 222.377 122.523 222.779C122.691 223.182 122.763 223.661 122.74 224.217H121.958V223.939C121.949 223.363 121.832 222.933 121.606 222.649C121.38 222.362 121.044 222.219 120.598 222.219C120.12 222.219 119.757 222.372 119.508 222.679C119.259 222.986 119.134 223.427 119.134 224C119.134 224.553 119.259 224.982 119.508 225.286C119.757 225.59 120.112 225.742 120.572 225.742C120.882 225.742 121.151 225.671 121.38 225.529C121.609 225.387 121.789 225.183 121.919 224.917L122.662 225.173C122.479 225.587 122.204 225.909 121.836 226.137C121.471 226.363 121.062 226.476 120.607 226.476ZM118.873 224.217V223.596H122.34V224.217H118.873ZM125.862 226.476C125.422 226.476 125.051 226.368 124.75 226.151C124.449 225.93 124.22 225.634 124.064 225.26C123.91 224.883 123.833 224.462 123.833 223.996C123.833 223.524 123.91 223.101 124.064 222.727C124.22 222.353 124.449 222.059 124.75 221.845C125.054 221.631 125.426 221.524 125.867 221.524C126.301 221.524 126.675 221.632 126.987 221.849C127.303 222.064 127.545 222.358 127.713 222.731C127.881 223.105 127.965 223.526 127.965 223.996C127.965 224.465 127.881 224.886 127.713 225.26C127.545 225.634 127.303 225.93 126.987 226.151C126.675 226.368 126.3 226.476 125.862 226.476ZM123.703 226.346V220.09H124.481V222.892H124.394V226.346H123.703ZM125.767 225.768C126.077 225.768 126.333 225.69 126.536 225.534C126.738 225.377 126.89 225.166 126.992 224.899C127.093 224.63 127.144 224.329 127.144 223.996C127.144 223.665 127.093 223.367 126.992 223.101C126.893 222.834 126.74 222.623 126.531 222.466C126.326 222.31 126.063 222.232 125.745 222.232C125.441 222.232 125.189 222.307 124.989 222.458C124.789 222.605 124.64 222.813 124.541 223.079C124.443 223.343 124.394 223.648 124.394 223.996C124.394 224.337 124.442 224.643 124.537 224.912C124.636 225.179 124.786 225.389 124.989 225.542C125.192 225.693 125.451 225.768 125.767 225.768Z" fill="black"/>
<path d="M172.077 226.346V220.09H172.781L175.145 225.073L177.495 220.09H178.207V226.342H177.473V221.789L175.349 226.346H174.936L172.812 221.789V226.346H172.077ZM180.759 226.476C180.409 226.476 180.115 226.413 179.877 226.285C179.643 226.155 179.465 225.984 179.343 225.773C179.224 225.561 179.165 225.329 179.165 225.077C179.165 224.831 179.211 224.618 179.304 224.439C179.4 224.256 179.533 224.106 179.704 223.987C179.875 223.865 180.079 223.77 180.316 223.7C180.539 223.639 180.788 223.587 181.063 223.544C181.342 223.497 181.622 223.455 181.906 223.418C182.19 223.38 182.455 223.344 182.701 223.309L182.423 223.47C182.432 223.053 182.348 222.744 182.171 222.545C181.998 222.345 181.696 222.245 181.268 222.245C180.984 222.245 180.735 222.31 180.52 222.44C180.309 222.568 180.16 222.776 180.073 223.066L179.339 222.844C179.452 222.433 179.67 222.11 179.995 221.876C180.319 221.641 180.746 221.524 181.276 221.524C181.702 221.524 182.067 221.6 182.371 221.754C182.678 221.905 182.898 222.133 183.032 222.44C183.098 222.585 183.14 222.743 183.158 222.914C183.175 223.082 183.184 223.259 183.184 223.444V226.346H182.497V225.221L182.658 225.325C182.481 225.704 182.234 225.991 181.915 226.185C181.599 226.379 181.214 226.476 180.759 226.476ZM180.877 225.829C181.155 225.829 181.395 225.78 181.598 225.681C181.803 225.58 181.969 225.448 182.093 225.286C182.218 225.121 182.299 224.941 182.336 224.747C182.38 224.602 182.403 224.442 182.406 224.265C182.412 224.085 182.415 223.948 182.415 223.852L182.684 223.97C182.432 224.004 182.184 224.038 181.941 224.07C181.698 224.101 181.468 224.136 181.25 224.174C181.033 224.209 180.838 224.251 180.664 224.3C180.536 224.34 180.416 224.392 180.303 224.456C180.193 224.52 180.103 224.602 180.034 224.704C179.967 224.802 179.934 224.925 179.934 225.073C179.934 225.201 179.966 225.322 180.029 225.438C180.096 225.554 180.197 225.648 180.334 225.72C180.473 225.793 180.654 225.829 180.877 225.829ZM184.313 226.346V221.654H185.004V222.788L184.891 222.64C184.946 222.495 185.017 222.362 185.104 222.24C185.194 222.119 185.294 222.019 185.404 221.941C185.525 221.842 185.663 221.767 185.816 221.715C185.97 221.663 186.126 221.632 186.286 221.624C186.445 221.612 186.594 221.622 186.733 221.654V222.38C186.571 222.336 186.393 222.324 186.199 222.345C186.005 222.365 185.825 222.436 185.66 222.558C185.509 222.665 185.392 222.795 185.308 222.949C185.227 223.102 185.17 223.269 185.139 223.448C185.107 223.625 185.091 223.806 185.091 223.991V226.346H184.313Z" fill="black"/>
<path d="M230.449 226.346L232.543 220.09H233.62L235.714 226.346H234.91L232.951 220.542H233.194L231.252 226.346H230.449ZM231.456 224.882V224.156H234.706V224.882H231.456ZM238.647 226.476C238.206 226.476 237.836 226.368 237.534 226.151C237.233 225.93 237.004 225.634 236.848 225.26C236.695 224.883 236.618 224.462 236.618 223.996C236.618 223.524 236.695 223.101 236.848 222.727C237.004 222.353 237.233 222.059 237.534 221.845C237.839 221.631 238.211 221.524 238.651 221.524C239.085 221.524 239.459 221.632 239.772 221.849C240.088 222.064 240.329 222.358 240.497 222.731C240.665 223.105 240.749 223.526 240.749 223.996C240.749 224.465 240.665 224.886 240.497 225.26C240.329 225.634 240.088 225.93 239.772 226.151C239.459 226.368 239.084 226.476 238.647 226.476ZM236.487 228.431V221.654H237.178V225.108H237.265V228.431H236.487ZM238.551 225.768C238.861 225.768 239.117 225.69 239.32 225.534C239.523 225.377 239.675 225.166 239.776 224.899C239.878 224.63 239.928 224.329 239.928 223.996C239.928 223.665 239.878 223.367 239.776 223.101C239.678 222.834 239.524 222.623 239.316 222.466C239.11 222.31 238.848 222.232 238.529 222.232C238.225 222.232 237.973 222.307 237.773 222.458C237.574 222.605 237.424 222.813 237.326 223.079C237.227 223.343 237.178 223.648 237.178 223.996C237.178 224.337 237.226 224.643 237.322 224.912C237.42 225.179 237.571 225.389 237.773 225.542C237.976 225.693 238.235 225.768 238.551 225.768ZM241.702 226.346V221.654H242.393V222.788L242.28 222.64C242.335 222.495 242.406 222.362 242.492 222.24C242.582 222.119 242.682 222.019 242.792 221.941C242.914 221.842 243.051 221.767 243.205 221.715C243.358 221.663 243.515 221.632 243.674 221.624C243.833 221.612 243.983 221.622 244.122 221.654V222.38C243.959 222.336 243.781 222.324 243.587 222.345C243.393 222.365 243.214 222.436 243.049 222.558C242.898 222.665 242.781 222.795 242.697 222.949C242.616 223.102 242.559 223.269 242.527 223.448C242.495 223.625 242.479 223.806 242.479 223.991V226.346H241.702Z" fill="black"/>
<path d="M288.689 226.346V220.09H289.392L291.756 225.073L294.106 220.09H294.819V226.342H294.085V221.789L291.96 226.346H291.547L289.423 221.789V226.346H288.689ZM297.371 226.476C297.02 226.476 296.726 226.413 296.489 226.285C296.254 226.155 296.076 225.984 295.954 225.773C295.836 225.561 295.776 225.329 295.776 225.077C295.776 224.831 295.823 224.618 295.915 224.439C296.011 224.256 296.144 224.106 296.315 223.987C296.486 223.865 296.69 223.77 296.928 223.7C297.151 223.639 297.4 223.587 297.675 223.544C297.953 223.497 298.234 223.455 298.518 223.418C298.802 223.38 299.067 223.344 299.313 223.309L299.035 223.47C299.043 223.053 298.959 222.744 298.783 222.545C298.609 222.345 298.308 222.245 297.879 222.245C297.595 222.245 297.346 222.31 297.132 222.44C296.92 222.568 296.771 222.776 296.684 223.066L295.95 222.844C296.063 222.433 296.282 222.11 296.606 221.876C296.93 221.641 297.358 221.524 297.888 221.524C298.313 221.524 298.678 221.6 298.983 221.754C299.29 221.905 299.51 222.133 299.643 222.44C299.71 222.585 299.752 222.743 299.769 222.914C299.786 223.082 299.795 223.259 299.795 223.444V226.346H299.109V225.221L299.269 225.325C299.093 225.704 298.845 225.991 298.526 226.185C298.211 226.379 297.825 226.476 297.371 226.476ZM297.488 225.829C297.766 225.829 298.006 225.78 298.209 225.681C298.415 225.58 298.58 225.448 298.704 225.286C298.829 225.121 298.91 224.941 298.948 224.747C298.991 224.602 299.014 224.442 299.017 224.265C299.023 224.085 299.026 223.948 299.026 223.852L299.295 223.97C299.043 224.004 298.796 224.038 298.552 224.07C298.309 224.101 298.079 224.136 297.862 224.174C297.644 224.209 297.449 224.251 297.275 224.3C297.148 224.34 297.028 224.392 296.915 224.456C296.805 224.52 296.715 224.602 296.645 224.704C296.579 224.802 296.545 224.925 296.545 225.073C296.545 225.201 296.577 225.322 296.641 225.438C296.707 225.554 296.809 225.648 296.945 225.72C297.084 225.793 297.265 225.829 297.488 225.829ZM301.313 228.431L302.221 225.964L302.234 226.694L300.184 221.654H300.996L302.603 225.707H302.325L303.833 221.654H304.619L302.065 228.431H301.313Z" fill="black"/>
<path d="M349.624 226.472C349.187 226.472 348.816 226.353 348.512 226.116C348.208 225.878 347.999 225.56 347.886 225.16L348.655 224.978C348.701 225.189 348.813 225.369 348.99 225.516C349.169 225.664 349.375 225.738 349.607 225.738C349.757 225.738 349.911 225.702 350.067 225.629C350.223 225.554 350.344 225.432 350.428 225.264C350.486 225.148 350.519 225.021 350.528 224.882C350.536 224.74 350.541 224.573 350.541 224.382V220.09H351.323V224.382C351.323 224.562 351.321 224.723 351.318 224.865C351.318 225.006 351.304 225.143 351.275 225.273C351.249 225.4 351.197 225.531 351.118 225.664C350.962 225.939 350.752 226.143 350.488 226.277C350.228 226.407 349.94 226.472 349.624 226.472ZM354.408 226.468C354.107 226.468 353.847 226.42 353.63 226.324C353.416 226.229 353.238 226.101 353.096 225.942C352.954 225.783 352.842 225.606 352.761 225.412C352.68 225.218 352.622 225.02 352.588 224.817C352.556 224.614 352.54 224.424 352.54 224.248V221.654H353.322V224.004C353.322 224.224 353.342 224.437 353.383 224.643C353.423 224.849 353.491 225.034 353.587 225.199C353.685 225.364 353.816 225.495 353.978 225.59C354.143 225.686 354.349 225.733 354.595 225.733C354.789 225.733 354.965 225.7 355.125 225.634C355.284 225.567 355.42 225.468 355.533 225.338C355.646 225.205 355.733 225.037 355.794 224.834C355.855 224.631 355.885 224.395 355.885 224.126L356.393 224.282C356.393 224.734 356.311 225.124 356.146 225.451C355.984 225.778 355.753 226.03 355.455 226.207C355.16 226.381 354.811 226.468 354.408 226.468ZM355.972 226.346V225.09H355.885V221.654H356.663V226.346H355.972ZM361.22 226.346V223.996C361.22 223.773 361.2 223.558 361.159 223.353C361.122 223.147 361.053 222.963 360.955 222.801C360.859 222.636 360.729 222.505 360.564 222.41C360.402 222.314 360.196 222.267 359.947 222.267C359.753 222.267 359.576 222.3 359.417 222.366C359.261 222.43 359.126 222.529 359.013 222.662C358.9 222.795 358.812 222.963 358.748 223.166C358.687 223.366 358.657 223.602 358.657 223.874L358.148 223.718C358.148 223.263 358.23 222.873 358.392 222.549C358.557 222.222 358.787 221.971 359.083 221.797C359.381 221.621 359.731 221.532 360.134 221.532C360.438 221.532 360.697 221.58 360.912 221.676C361.126 221.771 361.304 221.899 361.446 222.058C361.588 222.214 361.699 222.391 361.78 222.588C361.862 222.782 361.918 222.98 361.95 223.183C361.985 223.383 362.002 223.573 362.002 223.752V226.346H361.22ZM357.875 226.346V221.654H358.57V222.91H358.657V226.346H357.875Z" fill="black"/>
<path d="M407.43 226.472C406.992 226.472 406.621 226.353 406.317 226.116C406.013 225.878 405.805 225.56 405.692 225.16L406.461 224.978C406.507 225.189 406.619 225.369 406.795 225.516C406.975 225.664 407.18 225.738 407.412 225.738C407.563 225.738 407.716 225.702 407.873 225.629C408.029 225.554 408.149 225.432 408.233 225.264C408.291 225.148 408.325 225.021 408.333 224.882C408.342 224.74 408.346 224.573 408.346 224.382V220.09H409.128V224.382C409.128 224.562 409.127 224.723 409.124 224.865C409.124 225.006 409.109 225.143 409.08 225.273C409.054 225.4 409.002 225.531 408.924 225.664C408.768 225.939 408.558 226.143 408.294 226.277C408.033 226.407 407.745 226.472 407.43 226.472ZM412.214 226.468C411.912 226.468 411.653 226.42 411.436 226.324C411.222 226.229 411.043 226.101 410.902 225.942C410.76 225.783 410.648 225.606 410.567 225.412C410.486 225.218 410.428 225.02 410.393 224.817C410.361 224.614 410.345 224.424 410.345 224.248V221.654H411.127V224.004C411.127 224.224 411.148 224.437 411.188 224.643C411.229 224.849 411.297 225.034 411.392 225.199C411.491 225.364 411.621 225.495 411.783 225.59C411.949 225.686 412.154 225.733 412.4 225.733C412.594 225.733 412.771 225.7 412.93 225.634C413.09 225.567 413.226 225.468 413.339 225.338C413.452 225.205 413.539 225.037 413.599 224.834C413.66 224.631 413.691 224.395 413.691 224.126L414.199 224.282C414.199 224.734 414.116 225.124 413.951 225.451C413.789 225.778 413.559 226.03 413.261 226.207C412.965 226.381 412.616 226.468 412.214 226.468ZM413.778 226.346V225.09H413.691V221.654H414.468V226.346H413.778ZM415.772 226.346V219.96H416.545V226.346H415.772Z" fill="black"/>
<path opacity="0.8" d="M51.5132 76.5198C51.5132 73.7776 53.7362 71.5547 56.4784 71.5547H73.8563C76.5985 71.5547 78.8215 73.7776 78.8215 76.5198V206.855H51.5132V76.5198Z" fill="#95A1B8" fill-opacity="0.06"/>
<line x1="65.4777" y1="81.7952" x2="65.4777" y2="206.544" stroke="#F1F2F4" stroke-width="0.620642" stroke-linecap="round"/>
<path opacity="0.8" d="M109.233 76.5198C109.233 73.7776 111.456 71.5547 114.198 71.5547H131.576C134.318 71.5547 136.541 73.7776 136.541 76.5198V206.855H109.233V76.5198Z" fill="#95A1B8" fill-opacity="0.06"/>
<line x1="123.197" y1="81.7952" x2="123.197" y2="206.544" stroke="#F1F2F4" stroke-width="0.620642" stroke-linecap="round"/>
<path opacity="0.8" d="M166.953 76.5198C166.953 73.7776 169.176 71.5547 171.918 71.5547H189.296C192.038 71.5547 194.261 73.7776 194.261 76.5198V206.855H166.953V76.5198Z" fill="#95A1B8" fill-opacity="0.06"/>
<line x1="180.917" y1="81.7952" x2="180.917" y2="206.544" stroke="#F1F2F4" stroke-width="0.620642" stroke-linecap="round"/>
<path d="M224.672 76.5198C224.672 73.7776 226.895 71.5547 229.637 71.5547H247.015C249.758 71.5547 251.98 73.7776 251.98 76.5198V206.855H224.672V76.5198Z" fill="url(#paint0_linear_2_1365)"/>
<line x1="238.637" y1="81.7952" x2="238.637" y2="206.544" stroke="white" stroke-width="0.620642" stroke-linecap="round" stroke-dasharray="2.48 2.48"/>
<path opacity="0.8" d="M282.392 76.5198C282.392 73.7776 284.615 71.5547 287.357 71.5547H304.735C307.477 71.5547 309.7 73.7776 309.7 76.5198V206.855H282.392V76.5198Z" fill="#95A1B8" fill-opacity="0.06"/>
<line x1="296.356" y1="81.7952" x2="296.356" y2="206.544" stroke="#F1F2F4" stroke-width="0.620642" stroke-linecap="round"/>
<path opacity="0.8" d="M340.112 76.5198C340.112 73.7776 342.335 71.5547 345.077 71.5547H362.455C365.197 71.5547 367.42 73.7776 367.42 76.5198V206.855H340.112V76.5198Z" fill="#95A1B8" fill-opacity="0.06"/>
<line x1="354.076" y1="81.7952" x2="354.076" y2="206.544" stroke="#F1F2F4" stroke-width="0.620642" stroke-linecap="round"/>
<path opacity="0.8" d="M397.831 76.5198C397.831 73.7776 400.054 71.5547 402.796 71.5547H420.174C422.917 71.5547 425.139 73.7776 425.139 76.5198V206.855H397.831V76.5198Z" fill="#95A1B8" fill-opacity="0.06"/>
<line x1="411.796" y1="81.7952" x2="411.796" y2="206.544" stroke="#F1F2F4" stroke-width="0.620642" stroke-linecap="round"/>
<path d="M63.3055 160.148C90.9485 161.603 112.38 145.233 123.251 145.233C135.985 145.233 166.424 161.365 180.711 159.785C198.415 157.827 224.505 129.166 238.793 127.771C253.701 126.316 282.276 152.053 296.564 153.236C312.715 154.574 330.798 140.922 354.956 139.412C373.281 138.268 397.507 113.22 412.727 113.22" stroke="#316CE6" stroke-width="1.5516" stroke-linecap="round"/>
<path d="M21.4514 24.8701C20.8287 24.8701 20.3001 24.7326 19.8657 24.4574C19.4312 24.1822 19.0996 23.7999 18.8708 23.3105C18.6449 22.821 18.5319 22.2547 18.5319 21.6118C18.5319 20.9688 18.6449 20.4025 18.8708 19.9131C19.0996 19.4236 19.4312 19.0413 19.8657 18.7661C20.3001 18.491 20.8287 18.3534 21.4514 18.3534C22.077 18.3534 22.6071 18.491 23.0415 18.7661C23.476 19.0413 23.8061 19.4236 24.0321 19.9131C24.258 20.4025 24.3709 20.9688 24.3709 21.6118C24.3709 22.2547 24.258 22.821 24.0321 23.3105C23.8061 23.7999 23.476 24.1822 23.0415 24.4574C22.6071 24.7326 22.077 24.8701 21.4514 24.8701ZM21.4514 24.1316C21.9177 24.1345 22.3058 24.0302 22.6157 23.8188C22.9286 23.6044 23.1617 23.3076 23.3152 22.9281C23.4716 22.5487 23.5498 22.1099 23.5498 21.6118C23.5498 21.1107 23.4716 20.6719 23.3152 20.2954C23.1617 19.9189 22.9286 19.6249 22.6157 19.4134C22.3058 19.202 21.9177 19.0948 21.4514 19.092C20.9851 19.0891 20.597 19.1933 20.2871 19.4048C19.9801 19.6162 19.7484 19.9116 19.592 20.291C19.4356 20.6705 19.3559 21.1107 19.353 21.6118C19.3501 22.1099 19.4269 22.5473 19.5833 22.9238C19.7397 23.3003 19.9728 23.5957 20.2828 23.8101C20.5956 24.0215 20.9851 24.1287 21.4514 24.1316ZM26.5121 24.7398L24.809 20.0477H25.591L26.9074 23.7536L28.2195 20.0477H29.0058L27.3028 24.7398H26.5121ZM31.6551 24.8701C31.1946 24.8701 30.792 24.7688 30.4474 24.566C30.1056 24.3604 29.8391 24.0751 29.648 23.7101C29.4568 23.3423 29.3612 22.9137 29.3612 22.4242C29.3612 21.9115 29.4554 21.4684 29.6436 21.0948C29.8319 20.7182 30.094 20.4286 30.43 20.2259C30.7689 20.0202 31.1657 19.9174 31.6204 19.9174C32.0925 19.9174 32.4936 20.026 32.8238 20.2432C33.1569 20.4605 33.406 20.7704 33.5711 21.173C33.739 21.5756 33.8115 22.0549 33.7883 22.611H33.0063V22.3329C32.9976 21.7566 32.8803 21.3265 32.6544 21.0426C32.4285 20.7559 32.0925 20.6125 31.6465 20.6125C31.1686 20.6125 30.8051 20.766 30.556 21.073C30.3069 21.3801 30.1824 21.8203 30.1824 22.3938C30.1824 22.947 30.3069 23.3756 30.556 23.6797C30.8051 23.9839 31.1599 24.1359 31.6204 24.1359C31.9303 24.1359 32.1996 24.0649 32.4285 23.923C32.6573 23.7811 32.8368 23.5769 32.9672 23.3105L33.7101 23.5668C33.5276 23.981 33.2525 24.3024 32.8846 24.5313C32.5197 24.7572 32.1099 24.8701 31.6551 24.8701ZM29.9217 22.611V21.9897H33.3886V22.611H29.9217ZM34.7555 24.7398V20.0477H35.4463V21.1817L35.3334 21.0339C35.3884 20.8891 35.4594 20.7559 35.5462 20.6342C35.636 20.5126 35.736 20.4127 35.846 20.3345C35.9677 20.236 36.1052 20.1607 36.2587 20.1086C36.4122 20.0564 36.5686 20.026 36.7279 20.0173C36.8872 20.0057 37.0364 20.0159 37.1754 20.0477V20.7733C37.0132 20.7298 36.8351 20.7182 36.6411 20.7385C36.447 20.7588 36.2674 20.8297 36.1023 20.9514C35.9517 21.0586 35.8344 21.1889 35.7504 21.3424C35.6693 21.4959 35.6129 21.6624 35.581 21.842C35.5491 22.0187 35.5332 22.1997 35.5332 22.3851V24.7398H34.7555ZM39.178 24.8701C38.8275 24.8701 38.5335 24.8064 38.296 24.679C38.0614 24.5486 37.8833 24.3778 37.7617 24.1663C37.6429 23.9549 37.5835 23.7232 37.5835 23.4712C37.5835 23.225 37.6299 23.0121 37.7226 22.8326C37.8181 22.6501 37.9514 22.4995 38.1223 22.3807C38.2931 22.2591 38.4973 22.1635 38.7348 22.094C38.9578 22.0332 39.2069 21.981 39.4821 21.9376C39.7601 21.8913 40.0411 21.8493 40.3249 21.8116C40.6088 21.774 40.8738 21.7377 41.12 21.703L40.8419 21.8637C40.8506 21.4467 40.7666 21.1382 40.5899 20.9384C40.4161 20.7385 40.1149 20.6386 39.6863 20.6386C39.4024 20.6386 39.1533 20.7038 38.939 20.8341C38.7276 20.9615 38.5784 21.1701 38.4915 21.4597L37.7573 21.2381C37.8703 20.8269 38.0889 20.5039 38.4133 20.2693C38.7377 20.0347 39.1649 19.9174 39.695 19.9174C40.1207 19.9174 40.4857 19.9942 40.7898 20.1477C41.0968 20.2983 41.3169 20.5271 41.4501 20.8341C41.5168 20.9789 41.5587 21.1368 41.5761 21.3076C41.5935 21.4756 41.6022 21.6523 41.6022 21.8377V24.7398H40.9158V23.6146L41.0765 23.7188C40.8998 24.0983 40.6522 24.385 40.3336 24.579C40.0179 24.7731 39.6327 24.8701 39.178 24.8701ZM39.2953 24.2228C39.5733 24.2228 39.8137 24.1736 40.0165 24.0751C40.2221 23.9737 40.3872 23.8419 40.5117 23.6797C40.6363 23.5146 40.7174 23.3351 40.755 23.141C40.7985 22.9962 40.8216 22.8355 40.8245 22.6588C40.8303 22.4792 40.8332 22.3416 40.8332 22.2461L41.1026 22.3634C40.8506 22.3981 40.603 22.4314 40.3597 22.4633C40.1164 22.4951 39.8861 22.5299 39.6689 22.5675C39.4517 22.6023 39.2562 22.6443 39.0824 22.6935C38.9549 22.7341 38.8348 22.7862 38.7218 22.8499C38.6117 22.9137 38.5219 22.9962 38.4524 23.0976C38.3858 23.196 38.3525 23.3191 38.3525 23.4669C38.3525 23.5943 38.3844 23.7159 38.4481 23.8318C38.5147 23.9476 38.6161 24.0418 38.7522 24.1142C38.8912 24.1866 39.0723 24.2228 39.2953 24.2228ZM42.8187 24.7398V18.3534H43.592V24.7398H42.8187ZM44.9824 24.7398V18.3534H45.7557V24.7398H44.9824ZM50.5713 24.8658C50.0123 24.8658 49.5533 24.7441 49.1941 24.5008C48.8379 24.2547 48.6192 23.9114 48.5381 23.4712L49.3288 23.3452C49.3925 23.6001 49.5388 23.8028 49.7676 23.9534C49.9964 24.1012 50.2802 24.175 50.6191 24.175C50.9406 24.175 51.1926 24.1084 51.3751 23.9752C51.5575 23.8419 51.6488 23.6609 51.6488 23.4321C51.6488 23.2989 51.6184 23.1917 51.5575 23.1106C51.4967 23.0266 51.3707 22.9484 51.1796 22.876C50.9913 22.8036 50.706 22.7167 50.3237 22.6153C49.9095 22.5053 49.5837 22.3909 49.3462 22.2721C49.1087 22.1534 48.9392 22.0158 48.8379 21.8594C48.7365 21.703 48.6858 21.5133 48.6858 21.2903C48.6858 21.0151 48.7611 20.7747 48.9117 20.5691C49.0623 20.3605 49.2723 20.1998 49.5417 20.0868C49.8139 19.9739 50.1296 19.9174 50.4888 19.9174C50.845 19.9174 51.1636 19.9739 51.4446 20.0868C51.7255 20.1998 51.9514 20.3605 52.1223 20.5691C52.2961 20.7747 52.3989 21.0151 52.4308 21.2903L51.6401 21.4336C51.6024 21.1817 51.4808 20.9833 51.2751 20.8384C51.0724 20.6936 50.8103 20.6169 50.4888 20.6082C50.1847 20.5966 49.937 20.6502 49.7459 20.7689C49.5576 20.8877 49.4635 21.0484 49.4635 21.2512C49.4635 21.3641 49.4982 21.4611 49.5677 21.5422C49.6402 21.6233 49.7719 21.7001 49.9631 21.7725C50.1572 21.8449 50.4381 21.9275 50.8059 22.0201C51.2201 22.1244 51.5459 22.2388 51.7834 22.3634C52.0238 22.485 52.1947 22.6298 52.2961 22.7978C52.3975 22.9629 52.4481 23.1671 52.4481 23.4104C52.4481 23.8622 52.2816 24.2185 51.9485 24.4791C51.6155 24.7369 51.1564 24.8658 50.5713 24.8658ZM54.7401 24.8701C54.3896 24.8701 54.0956 24.8064 53.8581 24.679C53.6235 24.5486 53.4454 24.3778 53.3238 24.1663C53.205 23.9549 53.1456 23.7232 53.1456 23.4712C53.1456 23.225 53.192 23.0121 53.2847 22.8326C53.3802 22.6501 53.5135 22.4995 53.6844 22.3807C53.8552 22.2591 54.0594 22.1635 54.2969 22.094C54.52 22.0332 54.769 21.981 55.0442 21.9376C55.3222 21.8913 55.6032 21.8493 55.887 21.8116C56.1709 21.774 56.4359 21.7377 56.6821 21.703L56.404 21.8637C56.4127 21.4467 56.3287 21.1382 56.152 20.9384C55.9783 20.7385 55.677 20.6386 55.2484 20.6386C54.9645 20.6386 54.7155 20.7038 54.5011 20.8341C54.2897 20.9615 54.1405 21.1701 54.0536 21.4597L53.3194 21.2381C53.4324 20.8269 53.6511 20.5039 53.9754 20.2693C54.2998 20.0347 54.727 19.9174 55.2571 19.9174C55.6828 19.9174 56.0478 19.9942 56.3519 20.1477C56.6589 20.2983 56.879 20.5271 57.0122 20.8341C57.0789 20.9789 57.1209 21.1368 57.1382 21.3076C57.1556 21.4756 57.1643 21.6523 57.1643 21.8377V24.7398H56.4779V23.6146L56.6386 23.7188C56.4619 24.0983 56.2143 24.385 55.8957 24.579C55.58 24.7731 55.1948 24.8701 54.7401 24.8701ZM54.8574 24.2228C55.1354 24.2228 55.3758 24.1736 55.5786 24.0751C55.7842 23.9737 55.9493 23.8419 56.0738 23.6797C56.1984 23.5146 56.2795 23.3351 56.3171 23.141C56.3606 22.9962 56.3837 22.8355 56.3866 22.6588C56.3924 22.4792 56.3953 22.3416 56.3953 22.2461L56.6647 22.3634C56.4127 22.3981 56.1651 22.4314 55.9218 22.4633C55.6785 22.4951 55.4482 22.5299 55.231 22.5675C55.0138 22.6023 54.8183 22.6443 54.6445 22.6935C54.5171 22.7341 54.3969 22.7862 54.2839 22.8499C54.1738 22.9137 54.0841 22.9962 54.0145 23.0976C53.9479 23.196 53.9146 23.3191 53.9146 23.4669C53.9146 23.5943 53.9465 23.7159 54.0102 23.8318C54.0768 23.9476 54.1782 24.0418 54.3143 24.1142C54.4533 24.1866 54.6344 24.2228 54.8574 24.2228ZM58.3808 24.7398V18.3534H59.1541V24.7398H58.3808ZM62.4908 24.8701C62.0303 24.8701 61.6277 24.7688 61.2831 24.566C60.9413 24.3604 60.6748 24.0751 60.4837 23.7101C60.2925 23.3423 60.197 22.9137 60.197 22.4242C60.197 21.9115 60.2911 21.4684 60.4793 21.0948C60.6676 20.7182 60.9297 20.4286 61.2657 20.2259C61.6046 20.0202 62.0014 19.9174 62.4561 19.9174C62.9282 19.9174 63.3293 20.026 63.6595 20.2432C63.9926 20.4605 64.2417 20.7704 64.4068 21.173C64.5748 21.5756 64.6472 22.0549 64.624 22.611H63.842V22.3329C63.8333 21.7566 63.716 21.3265 63.4901 21.0426C63.2642 20.7559 62.9282 20.6125 62.4822 20.6125C62.0043 20.6125 61.6408 20.766 61.3917 21.073C61.1426 21.3801 61.0181 21.8203 61.0181 22.3938C61.0181 22.947 61.1426 23.3756 61.3917 23.6797C61.6408 23.9839 61.9956 24.1359 62.4561 24.1359C62.766 24.1359 63.0354 24.0649 63.2642 23.923C63.493 23.7811 63.6725 23.5769 63.8029 23.3105L64.5458 23.5668C64.3633 23.981 64.0882 24.3024 63.7203 24.5313C63.3554 24.7572 62.9456 24.8701 62.4908 24.8701ZM60.7574 22.611V21.9897H64.2243V22.611H60.7574ZM67.3638 24.8658C66.8048 24.8658 66.3457 24.7441 65.9866 24.5008C65.6304 24.2547 65.4117 23.9114 65.3306 23.4712L66.1213 23.3452C66.185 23.6001 66.3313 23.8028 66.5601 23.9534C66.7889 24.1012 67.0727 24.175 67.4116 24.175C67.7331 24.175 67.9851 24.1084 68.1675 23.9752C68.35 23.8419 68.4412 23.6609 68.4412 23.4321C68.4412 23.2989 68.4108 23.1917 68.35 23.1106C68.2892 23.0266 68.1632 22.9484 67.972 22.876C67.7838 22.8036 67.4985 22.7167 67.1162 22.6153C66.702 22.5053 66.3762 22.3909 66.1387 22.2721C65.9012 22.1534 65.7317 22.0158 65.6304 21.8594C65.529 21.703 65.4783 21.5133 65.4783 21.2903C65.4783 21.0151 65.5536 20.7747 65.7042 20.5691C65.8548 20.3605 66.0648 20.1998 66.3342 20.0868C66.6064 19.9739 66.9221 19.9174 67.2813 19.9174C67.6375 19.9174 67.9561 19.9739 68.237 20.0868C68.518 20.1998 68.7439 20.3605 68.9148 20.5691C69.0886 20.7747 69.1914 21.0151 69.2232 21.2903L68.4326 21.4336C68.3949 21.1817 68.2733 20.9833 68.0676 20.8384C67.8649 20.6936 67.6028 20.6169 67.2813 20.6082C66.9771 20.5966 66.7295 20.6502 66.5384 20.7689C66.3501 20.8877 66.256 21.0484 66.256 21.2512C66.256 21.3641 66.2907 21.4611 66.3602 21.5422C66.4326 21.6233 66.5644 21.7001 66.7556 21.7725C66.9496 21.8449 67.2306 21.9275 67.5984 22.0201C68.0126 22.1244 68.3384 22.2388 68.5759 22.3634C68.8163 22.485 68.9872 22.6298 69.0886 22.7978C69.1899 22.9629 69.2406 23.1671 69.2406 23.4104C69.2406 23.8622 69.0741 24.2185 68.741 24.4791C68.4079 24.7369 67.9489 24.8658 67.3638 24.8658Z" fill="black" fill-opacity="0.3"/>
<path d="M22.1217 47.7044V45.9393H23.9166V47.7044H22.1217ZM22.1217 35.7881V34.023H23.9166V35.7881H22.1217ZM23.0601 46.4458C22.3054 46.4458 21.6302 46.3068 21.0344 46.0287C20.4385 45.7507 19.9495 45.3584 19.5672 44.852C19.1898 44.3455 18.949 43.7447 18.8447 43.0496L20.6173 42.7666C20.7563 43.3773 21.0542 43.8639 21.511 44.2264C21.9728 44.5839 22.5239 44.7626 23.1644 44.7626C23.7801 44.7626 24.2865 44.6186 24.6837 44.3306C25.0809 44.0377 25.2795 43.6678 25.2795 43.2209C25.2795 42.9081 25.1852 42.6549 24.9965 42.4613C24.8079 42.2627 24.505 42.0988 24.0879 41.9697L21.5036 41.1654C19.9991 40.6986 19.2469 39.7851 19.2469 38.4246C19.2469 37.7891 19.3983 37.2355 19.7012 36.7638C20.0091 36.2871 20.441 35.9222 20.9971 35.669C21.5532 35.4108 22.2086 35.2842 22.9633 35.2891C23.6634 35.2941 24.2865 35.4207 24.8327 35.669C25.3838 35.9172 25.8406 36.2747 26.2031 36.7414C26.5705 37.2082 26.8311 37.7692 26.9851 38.4246L25.1455 38.7598C25.076 38.4072 24.9394 38.0969 24.7359 37.8288C24.5323 37.5607 24.2766 37.3521 23.9687 37.2032C23.6609 37.0542 23.3183 36.9748 22.941 36.9649C22.5785 36.9599 22.2533 37.017 21.9653 37.1362C21.6773 37.2504 21.4489 37.4142 21.2801 37.6277C21.1113 37.8362 21.0269 38.0721 21.0269 38.3352C21.0269 38.6282 21.1436 38.8789 21.3769 39.0875C21.6153 39.296 21.9901 39.4747 22.5015 39.6237L24.4305 40.1823C25.359 40.4504 26.0268 40.8153 26.4339 41.2771C26.846 41.7339 27.0521 42.3421 27.0521 43.1018C27.0521 43.7671 26.8858 44.3505 26.5531 44.852C26.2204 45.3535 25.7537 45.7457 25.1529 46.0287C24.5521 46.3068 23.8545 46.4458 23.0601 46.4458ZM31.8474 46.4458C31.3012 46.4458 30.7923 46.3341 30.3206 46.1106C29.8489 45.8822 29.4418 45.5694 29.0992 45.1722C28.7615 44.775 28.5182 44.3133 28.3693 43.787L30.0972 43.3252C30.1667 43.6132 30.2933 43.8614 30.477 44.07C30.6657 44.2785 30.8841 44.4399 31.1324 44.5541C31.3856 44.6683 31.6463 44.7254 31.9144 44.7254C32.262 44.7254 32.5797 44.641 32.8677 44.4721C33.1557 44.3033 33.3841 44.0774 33.5529 43.7944C33.7217 43.5064 33.8061 43.1887 33.8061 42.8411C33.8061 42.4935 33.7192 42.1783 33.5454 41.8952C33.3766 41.6073 33.1482 41.3813 32.8603 41.2175C32.5723 41.0487 32.257 40.9643 31.9144 40.9643C31.5023 40.9643 31.1597 41.0388 30.8866 41.1877C30.6185 41.3367 30.4124 41.4955 30.2685 41.6644L28.7342 41.1728L29.0619 35.4977H34.886V37.1808H30.0227L30.693 36.5478L30.4546 40.4951L30.1269 40.0929C30.405 39.8397 30.7277 39.651 31.0951 39.5269C31.4626 39.4027 31.8176 39.3407 32.1602 39.3407C32.8305 39.3407 33.4238 39.4946 33.9402 39.8024C34.4615 40.1053 34.8686 40.5199 35.1616 41.0462C35.4595 41.5725 35.6085 42.1708 35.6085 42.8411C35.6085 43.5114 35.4347 44.1196 35.0871 44.6658C34.7396 45.207 34.2803 45.6389 33.7093 45.9617C33.1433 46.2844 32.5226 46.4458 31.8474 46.4458ZM41.1039 46.4458C40.4038 46.4458 39.7733 46.2819 39.2122 45.9542C38.6561 45.6216 38.2142 45.1623 37.8865 44.5764C37.5588 43.9905 37.395 43.3177 37.395 42.5581V39.296C37.395 38.4817 37.5563 37.7742 37.8791 37.1734C38.2068 36.5726 38.6636 36.1084 39.2494 35.7807C39.8403 35.453 40.5255 35.2891 41.305 35.2891C41.8462 35.2891 42.3601 35.381 42.8467 35.5647C43.3333 35.7434 43.7652 36.0314 44.1426 36.4286L42.8467 37.6873C42.658 37.4639 42.4271 37.2876 42.154 37.1585C41.8859 37.0294 41.6029 36.9649 41.305 36.9649C40.8879 36.9649 40.523 37.0642 40.2102 37.2628C39.8974 37.4564 39.6541 37.7121 39.4803 38.0299C39.3115 38.3477 39.2271 38.6878 39.2271 39.0502V40.8302L38.8994 40.4727C39.2072 40.1152 39.5771 39.8372 40.0091 39.6386C40.4411 39.435 40.8929 39.3332 41.3646 39.3332C42.0399 39.3332 42.6357 39.4871 43.152 39.795C43.6684 40.0979 44.0756 40.5149 44.3735 41.0462C44.6714 41.5725 44.8203 42.1733 44.8203 42.8485C44.8203 43.5188 44.649 44.1271 44.3064 44.6732C43.9688 45.2144 43.5195 45.6464 42.9584 45.9691C42.3973 46.2869 41.7792 46.4458 41.1039 46.4458ZM41.1039 44.7254C41.4515 44.7254 41.7693 44.6434 42.0572 44.4796C42.3452 44.3108 42.5736 44.0849 42.7424 43.8018C42.9162 43.5139 43.0031 43.1961 43.0031 42.8485C43.0031 42.501 42.9187 42.1832 42.7499 41.8952C42.5811 41.6073 42.3527 41.3789 42.0647 41.21C41.7817 41.0363 41.4664 40.9494 41.1188 40.9494C40.7713 40.9494 40.4535 41.0363 40.1655 41.21C39.8775 41.3789 39.6491 41.6073 39.4803 41.8952C39.3115 42.1832 39.2271 42.501 39.2271 42.8485C39.2271 43.1862 39.309 43.499 39.4729 43.787C39.6417 44.07 39.8676 44.2984 40.1506 44.4721C40.4386 44.641 40.7564 44.7254 41.1039 44.7254ZM46.4975 48.1215L46.6017 47.347C46.8301 47.3668 47.0113 47.3271 47.1454 47.2278C47.2795 47.1335 47.3688 46.9969 47.4135 46.8182C47.4632 46.6444 47.4756 46.4458 47.4508 46.2224H46.4975V44.3083H48.337V46.2968C48.337 46.9473 48.1831 47.4388 47.8753 47.7715C47.5674 48.1041 47.1082 48.2208 46.4975 48.1215ZM54.2388 46.4234C53.7025 46.4234 53.1961 46.3192 52.7194 46.1106C52.2428 45.9021 51.8282 45.6067 51.4757 45.2244C51.1281 44.842 50.8774 44.3902 50.7234 43.8689L52.4588 43.3997C52.5829 43.8267 52.8088 44.1569 53.1365 44.3902C53.4692 44.6186 53.8341 44.7303 54.2313 44.7254C54.5838 44.7254 54.8991 44.6434 55.1772 44.4796C55.4552 44.3157 55.6737 44.0948 55.8326 43.8167C55.9914 43.5337 56.0709 43.2184 56.0709 42.8709C56.0709 42.3396 55.8996 41.8952 55.557 41.5377C55.2144 41.1803 54.7725 41.0015 54.2313 41.0015C54.0675 41.0015 53.9061 41.0239 53.7472 41.0685C53.5933 41.1132 53.4443 41.1753 53.3003 41.2547L52.4811 39.8397L56.0858 36.7563L56.2422 37.1883H51.1405V35.4977H57.7168V37.1957L54.8197 39.9812L54.8048 39.4524C55.4552 39.4971 56.0088 39.6783 56.4656 39.9961C56.9274 40.3138 57.2799 40.7235 57.5232 41.2249C57.7714 41.7264 57.8956 42.2751 57.8956 42.8709C57.8956 43.5461 57.7292 44.1519 57.3966 44.6881C57.0689 45.2244 56.627 45.6489 56.0709 45.9617C55.5198 46.2695 54.909 46.4234 54.2388 46.4234ZM64.2791 46.2224V44.4498H59.5274V42.7741L62.9608 35.4977H65.0089L61.5756 42.7741H64.2791V39.9812H66.0963V42.7741H67.1017V44.4498H66.0963V46.2224H64.2791ZM72.0678 46.4458C71.5217 46.4458 71.0128 46.3341 70.5411 46.1106C70.0694 45.8822 69.6622 45.5694 69.3196 45.1722C68.982 44.775 68.7387 44.3133 68.5898 43.787L70.3176 43.3252C70.3871 43.6132 70.5138 43.8614 70.6975 44.07C70.8861 44.2785 71.1046 44.4399 71.3529 44.5541C71.6061 44.6683 71.8668 44.7254 72.1349 44.7254C72.4824 44.7254 72.8002 44.641 73.0882 44.4721C73.3762 44.3033 73.6046 44.0774 73.7734 43.7944C73.9422 43.5064 74.0266 43.1887 74.0266 42.8411C74.0266 42.4935 73.9397 42.1783 73.7659 41.8952C73.5971 41.6073 73.3687 41.3813 73.0807 41.2175C72.7928 41.0487 72.4775 40.9643 72.1349 40.9643C71.7228 40.9643 71.3802 41.0388 71.1071 41.1877C70.839 41.3367 70.6329 41.4955 70.4889 41.6644L68.9547 41.1728L69.2824 35.4977H75.1065V37.1808H70.2432L70.9135 36.5478L70.6751 40.4951L70.3474 40.0929C70.6255 39.8397 70.9482 39.651 71.3156 39.5269C71.683 39.4027 72.0381 39.3407 72.3807 39.3407C73.0509 39.3407 73.6443 39.4946 74.1607 39.8024C74.682 40.1053 75.0891 40.5199 75.3821 41.0462C75.68 41.5725 75.8289 42.1708 75.8289 42.8411C75.8289 43.5114 75.6552 44.1196 75.3076 44.6658C74.96 45.207 74.5008 45.6389 73.9298 45.9617C73.3637 46.2844 72.7431 46.4458 72.0678 46.4458ZM77.9134 46.2224V44.3828H79.7529V46.2224H77.9134ZM85.6025 35.2891C86.3026 35.2891 86.9332 35.4555 87.4942 35.7881C88.0553 36.1158 88.4972 36.5726 88.8199 37.1585C89.1476 37.7394 89.3115 38.4097 89.3115 39.1694V42.4389C89.3115 43.2482 89.1476 43.9558 88.8199 44.5615C88.4972 45.1623 88.0429 45.6265 87.457 45.9542C86.8711 46.2819 86.1859 46.4458 85.4014 46.4458C84.8602 46.4458 84.3488 46.3539 83.8672 46.1702C83.3856 45.9815 82.9536 45.6936 82.5713 45.3063L83.8598 44.0476C84.0534 44.2711 84.2843 44.4473 84.5524 44.5764C84.8255 44.7005 85.1085 44.7626 85.4014 44.7626C85.8185 44.7626 86.1835 44.6658 86.4963 44.4721C86.8091 44.2735 87.0523 44.0178 87.2261 43.705C87.3999 43.3873 87.4868 43.0471 87.4868 42.6847V40.9047L87.807 41.2622C87.5042 41.6197 87.1368 41.9002 86.7048 42.1038C86.2728 42.3024 85.8185 42.4017 85.3419 42.4017C84.6716 42.4017 84.0758 42.2478 83.5544 41.9399C83.038 41.6321 82.6309 41.215 82.333 40.6887C82.04 40.1574 81.8936 39.5567 81.8936 38.8864C81.8936 38.2161 82.0624 37.6103 82.4 37.0691C82.7376 36.523 83.187 36.091 83.7481 35.7732C84.3141 35.4505 84.9322 35.2891 85.6025 35.2891ZM85.6025 37.0021C85.255 37.0021 84.9372 37.0865 84.6492 37.2553C84.3612 37.4241 84.1329 37.6525 83.964 37.9405C83.7952 38.2235 83.7108 38.5388 83.7108 38.8864C83.7108 39.2339 83.7927 39.5517 83.9566 39.8397C84.1254 40.1277 84.3513 40.356 84.6343 40.5249C84.9223 40.6937 85.2401 40.7781 85.5876 40.7781C85.9352 40.7781 86.253 40.6937 86.5409 40.5249C86.8289 40.356 87.0573 40.1277 87.2261 39.8397C87.3999 39.5517 87.4868 39.2339 87.4868 38.8864C87.4868 38.5487 87.4024 38.2384 87.2336 37.9554C87.0648 37.6674 86.8364 37.4365 86.5484 37.2628C86.2654 37.089 85.9501 37.0021 85.6025 37.0021ZM94.8987 46.4458C94.1886 46.4458 93.5581 46.3018 93.0069 46.0138C92.4558 45.7258 92.0238 45.3261 91.711 44.8147C91.3982 44.3033 91.2418 43.7174 91.2418 43.0571C91.2418 42.4662 91.3784 41.9176 91.6515 41.4111C91.9245 40.9047 92.3242 40.5 92.8505 40.1972L92.8133 40.7706C92.4012 40.4578 92.0809 40.0979 91.8525 39.6907C91.6291 39.2786 91.5174 38.8169 91.5174 38.3054C91.5174 37.6898 91.6614 37.156 91.9494 36.7042C92.2423 36.2524 92.642 35.9023 93.1484 35.6541C93.6549 35.4008 94.2383 35.2742 94.8987 35.2742C95.559 35.2742 96.1424 35.4008 96.6489 35.6541C97.1603 35.9023 97.56 36.2524 97.8479 36.7042C98.1409 37.156 98.2874 37.6898 98.2874 38.3054C98.2874 38.8169 98.1781 39.2761 97.9597 39.6833C97.7462 40.0904 97.4209 40.4578 96.984 40.7855L96.9766 40.2046C97.4929 40.4976 97.8877 40.8997 98.1608 41.4111C98.4388 41.9176 98.5778 42.4662 98.5778 43.0571C98.5778 43.7174 98.4189 44.3033 98.1012 44.8147C97.7884 45.3261 97.3539 45.7258 96.7978 46.0138C96.2467 46.3018 95.6136 46.4458 94.8987 46.4458ZM94.8987 44.7552C95.425 44.7552 95.852 44.6112 96.1797 44.3232C96.5123 44.0352 96.6787 43.6132 96.6787 43.0571C96.6787 42.501 96.5148 42.0789 96.1871 41.791C95.8594 41.498 95.4299 41.3516 94.8987 41.3516C94.3724 41.3516 93.9478 41.498 93.6251 41.791C93.3024 42.0789 93.141 42.501 93.141 43.0571C93.141 43.6132 93.3024 44.0352 93.6251 44.3232C93.9478 44.6112 94.3724 44.7552 94.8987 44.7552ZM94.8987 39.646C95.3406 39.646 95.698 39.5368 95.9711 39.3183C96.2492 39.0949 96.3882 38.7573 96.3882 38.3054C96.3882 37.8536 96.2492 37.5185 95.9711 37.3C95.698 37.0766 95.3406 36.9649 94.8987 36.9649C94.4617 36.9649 94.1042 37.0766 93.8262 37.3C93.5531 37.5185 93.4166 37.8536 93.4166 38.3054C93.4166 38.7573 93.5531 39.0949 93.8262 39.3183C94.1042 39.5368 94.4617 39.646 94.8987 39.646Z" fill="black"/>
<path d="M60.8229 138.284C82.235 138.284 100.544 167.586 123.818 167.586C142.748 167.586 170.676 149.696 181.227 151.442C196.594 153.984 205.432 164.497 217.535 165.499C241.119 167.452 277.737 126.212 296.046 128.687C313.734 131.078 322.734 155.785 334.526 155.785C346.318 155.785 372.385 135.461 380.453 135.461C388.522 135.461 398.142 146.188 412.106 146.188" stroke="#FFC700" stroke-width="1.5516" stroke-linecap="round"/>
<g filter="url(#filter0_d_2_1365)">
<ellipse cx="238.326" cy="127.45" rx="3.72385" ry="3.71212" fill="white"/>
<path d="M241.43 127.45C241.43 129.155 240.042 130.541 238.326 130.541C236.611 130.541 235.223 129.155 235.223 127.45C235.223 125.744 236.611 124.358 238.326 124.358C240.042 124.358 241.43 125.744 241.43 127.45Z" stroke="#316CE6" stroke-width="1.24128"/>
</g>
<rect x="103.457" y="33.3508" width="38.8605" height="14.9651" rx="7.48257" fill="#316CE6"/>
<path d="M109.353 42.3849L111.215 40.523L112.456 41.7643L114.939 39.2817" stroke="white" stroke-width="0.620642" stroke-linecap="round" stroke-linejoin="round"/>
<path d="M112.766 39.2817H114.939V41.454" stroke="white" stroke-width="0.620642" stroke-linecap="round" stroke-linejoin="round"/>
<path d="M118.662 42.8302L118.666 42.3337L120.649 40.5494C120.814 40.4004 120.925 40.2597 120.981 40.1273C121.039 39.9929 121.067 39.8553 121.067 39.7146C121.067 39.5429 121.028 39.3877 120.95 39.2491C120.871 39.1105 120.763 39.0009 120.627 38.9202C120.492 38.8395 120.339 38.7992 120.168 38.7992C119.99 38.7992 119.831 38.8416 119.693 38.9264C119.554 39.0091 119.444 39.1198 119.364 39.2584C119.285 39.397 119.247 39.5481 119.249 39.7115H118.684C118.684 39.4301 118.749 39.1819 118.88 38.9667C119.01 38.7495 119.187 38.5799 119.41 38.4578C119.636 38.3337 119.891 38.2716 120.177 38.2716C120.454 38.2716 120.702 38.3357 120.922 38.464C121.141 38.5902 121.314 38.763 121.44 38.9822C121.568 39.1995 121.632 39.4457 121.632 39.7208C121.632 39.9153 121.607 40.0839 121.558 40.2266C121.51 40.3694 121.436 40.5018 121.334 40.6238C121.233 40.7438 121.106 40.8721 120.953 41.0086L119.305 42.4889L119.233 42.3027H121.632V42.8302H118.662ZM123.6 42.9202C123.379 42.9202 123.173 42.8799 122.983 42.7992C122.793 42.7164 122.628 42.6006 122.49 42.4516C122.353 42.3006 122.253 42.1217 122.188 41.9148L122.719 41.7627C122.787 41.9696 122.901 42.1268 123.061 42.2344C123.22 42.342 123.399 42.3947 123.597 42.3927C123.779 42.3885 123.937 42.3472 124.069 42.2685C124.204 42.1879 124.307 42.0782 124.379 41.9396C124.454 41.801 124.491 41.6407 124.491 41.4586C124.491 41.1814 124.408 40.9569 124.243 40.7852C124.077 40.6114 123.86 40.5245 123.591 40.5245C123.517 40.5245 123.438 40.5349 123.355 40.5556C123.275 40.5763 123.199 40.6052 123.129 40.6425L122.862 40.2049L124.519 38.7061L124.59 38.8923H122.365V38.3647H125V38.8954L123.588 40.2484L123.582 40.0529C123.878 40.0322 124.136 40.0808 124.358 40.1987C124.579 40.3166 124.751 40.4852 124.873 40.7045C124.997 40.9238 125.059 41.1752 125.059 41.4586C125.059 41.7441 124.995 41.9965 124.867 42.2158C124.738 42.4351 124.565 42.6078 124.345 42.734C124.126 42.8582 123.878 42.9202 123.6 42.9202ZM125.804 43.5284L125.838 43.2709C125.925 43.2771 125.99 43.2605 126.033 43.2212C126.077 43.1819 126.105 43.1281 126.117 43.0599C126.13 42.9916 126.132 42.9161 126.123 42.8333H125.804V42.132H126.412V42.9264C126.412 43.1436 126.358 43.3071 126.251 43.4167C126.145 43.5264 125.996 43.5636 125.804 43.5284ZM128.915 42.9264C128.686 42.9264 128.471 42.8788 128.273 42.7837C128.076 42.6885 127.908 42.5582 127.767 42.3927C127.628 42.2251 127.529 42.0327 127.469 41.8155L128 41.6727C128.037 41.8196 128.103 41.9468 128.198 42.0544C128.293 42.1599 128.404 42.2427 128.53 42.3027C128.659 42.3606 128.792 42.3896 128.931 42.3896C129.113 42.3896 129.276 42.3461 129.421 42.2592C129.568 42.1703 129.684 42.0534 129.769 41.9086C129.853 41.7617 129.896 41.6014 129.896 41.4276C129.896 41.2476 129.851 41.0852 129.762 40.9404C129.675 40.7935 129.559 40.6776 129.412 40.5928C129.265 40.508 129.104 40.4656 128.931 40.4656C128.734 40.4656 128.566 40.507 128.425 40.5897C128.286 40.6704 128.177 40.7697 128.096 40.8876L127.606 40.7014L127.742 38.3647H130.141V38.8892H128.009L128.254 38.6595L128.139 40.5307L128.018 40.3725C128.142 40.2401 128.29 40.1377 128.462 40.0653C128.636 39.9929 128.813 39.9567 128.993 39.9567C129.27 39.9567 129.518 40.0218 129.737 40.1522C129.957 40.2804 130.131 40.4563 130.259 40.6797C130.387 40.9011 130.451 41.1504 130.451 41.4276C130.451 41.7027 130.381 41.9541 130.24 42.1817C130.1 42.4072 129.912 42.5882 129.679 42.7247C129.447 42.8592 129.192 42.9264 128.915 42.9264ZM131.69 42.8333L131.318 42.4609L135.42 38.3647L135.792 38.7371L131.69 42.8333ZM134.861 42.9264C134.657 42.9264 134.469 42.8768 134.3 42.7775C134.132 42.6761 133.998 42.5416 133.896 42.3741C133.795 42.2044 133.744 42.0162 133.744 41.8093C133.744 41.6065 133.796 41.4203 133.899 41.2507C134.003 41.0811 134.139 40.9455 134.309 40.8442C134.479 40.7428 134.663 40.6921 134.861 40.6921C135.066 40.6921 135.253 40.7428 135.423 40.8442C135.593 40.9435 135.727 41.0779 135.826 41.2476C135.928 41.4152 135.979 41.6024 135.979 41.8093C135.979 42.0162 135.928 42.2044 135.826 42.3741C135.727 42.5416 135.593 42.6761 135.423 42.7775C135.253 42.8768 135.066 42.9264 134.861 42.9264ZM134.861 42.4392C134.975 42.4392 135.08 42.4103 135.175 42.3523C135.272 42.2944 135.349 42.2179 135.404 42.1227C135.462 42.0275 135.491 41.9231 135.491 41.8093C135.491 41.6955 135.462 41.591 135.404 41.4958C135.349 41.3986 135.272 41.3221 135.175 41.2662C135.08 41.2083 134.975 41.1793 134.861 41.1793C134.748 41.1793 134.643 41.2083 134.548 41.2662C134.453 41.3221 134.376 41.3986 134.318 41.4958C134.26 41.591 134.231 41.6955 134.231 41.8093C134.231 41.9231 134.26 42.0275 134.318 42.1227C134.376 42.2179 134.453 42.2944 134.548 42.3523C134.643 42.4103 134.748 42.4392 134.861 42.4392ZM132.248 40.5059C132.044 40.5059 131.856 40.4563 131.687 40.357C131.517 40.2556 131.382 40.1211 131.28 39.9536C131.181 39.7839 131.131 39.5956 131.131 39.3888C131.131 39.186 131.183 38.9998 131.286 38.8302C131.39 38.6605 131.526 38.525 131.696 38.4237C131.866 38.3223 132.05 38.2716 132.248 38.2716C132.453 38.2716 132.639 38.3223 132.807 38.4237C132.977 38.523 133.112 38.6574 133.214 38.8271C133.315 38.9947 133.366 39.1819 133.366 39.3888C133.366 39.5956 133.315 39.7839 133.214 39.9536C133.112 40.1211 132.977 40.2556 132.807 40.357C132.639 40.4563 132.453 40.5059 132.248 40.5059ZM132.248 40.0187C132.362 40.0187 132.467 39.9898 132.562 39.9318C132.659 39.8739 132.736 39.7974 132.792 39.7022C132.849 39.607 132.878 39.5026 132.878 39.3888C132.878 39.275 132.849 39.1705 132.792 39.0753C132.736 38.9781 132.659 38.9016 132.562 38.8457C132.467 38.7878 132.362 38.7588 132.248 38.7588C132.135 38.7588 132.03 38.7878 131.935 38.8457C131.84 38.9016 131.763 38.9781 131.705 39.0753C131.647 39.1705 131.619 39.275 131.619 39.3888C131.619 39.5026 131.647 39.607 131.705 39.7022C131.763 39.7974 131.84 39.8739 131.935 39.9318C132.03 39.9898 132.135 40.0187 132.248 40.0187Z" fill="white"/>
<g filter="url(#filter1_d_2_1365)">
<rect x="211.551" y="85.1183" width="52.9303" height="33.9303" rx="4.96513" fill="white" shape-rendering="crispEdges"/>
<path d="M219.219 100.935V99.9705H219.584V100.935H219.219ZM219.219 93.9316V92.9585H219.584V93.9316H219.219ZM219.514 100.214C219.115 100.214 218.754 100.146 218.433 100.01C218.114 99.8705 217.849 99.675 217.638 99.4231C217.426 99.1711 217.284 98.8728 217.212 98.5281L217.559 98.4586C217.664 98.8872 217.891 99.2261 218.241 99.4752C218.592 99.7243 219.016 99.8488 219.514 99.8488C220.036 99.8488 220.453 99.7214 220.766 99.4665C221.078 99.2087 221.235 98.867 221.235 98.4412C221.235 98.1197 221.141 97.8648 220.952 97.6766C220.764 97.4854 220.441 97.3203 219.984 97.1813L218.672 96.7729C217.855 96.5151 217.446 96.0401 217.446 95.3479C217.446 95.0235 217.528 94.7382 217.69 94.4921C217.855 94.243 218.082 94.0489 218.372 93.9099C218.661 93.768 218.996 93.697 219.375 93.697C219.766 93.697 220.117 93.7723 220.427 93.9229C220.737 94.0735 220.99 94.2864 221.187 94.5616C221.384 94.8338 221.507 95.1539 221.556 95.5217L221.209 95.5912C221.168 95.2871 221.065 95.0206 220.9 94.7918C220.735 94.5601 220.522 94.3806 220.262 94.2531C220.001 94.1257 219.708 94.062 219.384 94.062C219.08 94.062 218.811 94.117 218.576 94.227C218.341 94.3342 218.156 94.4848 218.02 94.6789C217.887 94.87 217.82 95.0902 217.82 95.3392C217.82 95.6115 217.913 95.8403 218.098 96.0257C218.286 96.211 218.582 96.3674 218.984 96.4949L220.227 96.8772C220.705 97.0249 221.049 97.2218 221.261 97.468C221.475 97.7142 221.582 98.0444 221.582 98.4586C221.582 98.8148 221.497 99.1247 221.326 99.3883C221.158 99.649 220.919 99.8517 220.609 99.9965C220.299 100.141 219.934 100.214 219.514 100.214ZM224.298 100.214C223.967 100.214 223.665 100.147 223.39 100.014C223.114 99.8778 222.881 99.6924 222.69 99.4578C222.499 99.2203 222.363 98.951 222.282 98.6497L222.629 98.5542C222.696 98.8177 222.813 99.0465 222.981 99.2406C223.149 99.4317 223.348 99.5795 223.576 99.6837C223.805 99.788 224.046 99.8401 224.298 99.8401C224.625 99.8401 224.917 99.7619 225.175 99.6055C225.436 99.4462 225.641 99.2362 225.792 98.9756C225.943 98.7149 226.018 98.4296 226.018 98.1197C226.018 97.7953 225.938 97.5042 225.779 97.2465C225.62 96.9858 225.41 96.7802 225.149 96.6295C224.888 96.476 224.605 96.3993 224.298 96.3993C223.967 96.3993 223.676 96.4775 223.424 96.6339C223.172 96.7903 222.968 96.9988 222.812 97.2595L222.438 97.0423L222.629 93.8274H225.931V94.1923H222.725L222.994 93.9403L222.803 97.0336L222.664 96.8337C222.852 96.5904 223.088 96.3964 223.372 96.2516C223.656 96.1068 223.964 96.0344 224.298 96.0344C224.677 96.0344 225.024 96.1285 225.34 96.3167C225.656 96.505 225.908 96.757 226.096 97.0727C226.287 97.3884 226.383 97.7374 226.383 98.1197C226.383 98.4962 226.289 98.8438 226.1 99.1624C225.912 99.4781 225.66 99.733 225.345 99.927C225.029 100.118 224.68 100.214 224.298 100.214ZM226.991 100.083L227 99.7185L229.928 97.051C230.194 96.8106 230.367 96.5803 230.445 96.3602C230.523 96.1372 230.562 95.8953 230.562 95.6347C230.562 95.345 230.491 95.0815 230.349 94.844C230.207 94.6065 230.018 94.4168 229.78 94.2748C229.543 94.1329 229.279 94.062 228.989 94.062C228.691 94.062 228.423 94.1344 228.186 94.2792C227.948 94.424 227.76 94.6166 227.621 94.857C227.485 95.0945 227.417 95.3537 227.417 95.6347H227.052C227.052 95.2784 227.139 94.954 227.313 94.6615C227.489 94.3661 227.724 94.1315 228.016 93.9577C228.309 93.7839 228.633 93.697 228.989 93.697C229.354 93.697 229.683 93.7868 229.976 93.9664C230.268 94.1431 230.5 94.3791 230.671 94.6745C230.842 94.9671 230.927 95.2871 230.927 95.6347C230.927 95.8722 230.901 96.0879 230.849 96.282C230.8 96.476 230.719 96.6571 230.606 96.8251C230.496 96.993 230.351 97.1581 230.171 97.3203L227.252 99.9792L227.147 99.7185H230.927V100.083H226.991ZM231.881 100.857L231.907 100.631C232.008 100.637 232.076 100.612 232.111 100.557C232.146 100.505 232.163 100.435 232.163 100.348C232.166 100.264 232.167 100.176 232.167 100.083H231.881V99.3014H232.402V100.344C232.402 100.535 232.35 100.677 232.246 100.77C232.141 100.863 232.02 100.891 231.881 100.857ZM236.14 100.214C235.758 100.214 235.409 100.12 235.093 99.9314C234.778 99.7431 234.526 99.4911 234.337 99.1754C234.149 98.8597 234.055 98.5107 234.055 98.1284V95.7824C234.055 95.4001 234.148 95.0511 234.333 94.7354C234.521 94.4197 234.773 94.1677 235.089 93.9794C235.405 93.7911 235.755 93.697 236.14 93.697C236.523 93.697 236.873 93.7926 237.192 93.9838C237.513 94.1749 237.762 94.4269 237.939 94.7397L237.626 94.9222C237.478 94.6644 237.273 94.4573 237.009 94.3009C236.748 94.1416 236.459 94.062 236.14 94.062C235.813 94.062 235.519 94.1416 235.258 94.3009C235.001 94.4602 234.796 94.6702 234.646 94.9309C234.495 95.1915 234.42 95.4754 234.42 95.7824V97.3638L234.281 97.1987C234.463 96.8598 234.718 96.5832 235.045 96.3689C235.373 96.1517 235.738 96.043 236.14 96.043C236.523 96.043 236.872 96.1372 237.187 96.3254C237.503 96.5137 237.755 96.7657 237.943 97.0814C238.131 97.3971 238.226 97.7461 238.226 98.1284C238.226 98.5107 238.131 98.8597 237.943 99.1754C237.755 99.4911 237.503 99.7431 237.187 99.9314C236.872 100.12 236.523 100.214 236.14 100.214ZM236.14 99.8488C236.459 99.8488 236.748 99.7721 237.009 99.6186C237.27 99.4651 237.477 99.258 237.63 98.9973C237.784 98.7366 237.861 98.447 237.861 98.1284C237.861 97.8098 237.784 97.5202 237.63 97.2595C237.477 96.9988 237.27 96.7917 237.009 96.6382C236.748 96.4847 236.459 96.408 236.14 96.408C235.822 96.408 235.532 96.4847 235.271 96.6382C235.011 96.7917 234.804 96.9988 234.65 97.2595C234.497 97.5202 234.42 97.8098 234.42 98.1284C234.42 98.447 234.497 98.7366 234.65 98.9973C234.804 99.258 235.011 99.4651 235.271 99.6186C235.532 99.7721 235.822 99.8488 236.14 99.8488ZM241.285 100.214C240.955 100.214 240.652 100.147 240.377 100.014C240.102 99.8778 239.869 99.6924 239.678 99.4578C239.487 99.2203 239.35 98.951 239.269 98.6497L239.617 98.5542C239.683 98.8177 239.801 99.0465 239.969 99.2406C240.137 99.4317 240.335 99.5795 240.564 99.6837C240.793 99.788 241.033 99.8401 241.285 99.8401C241.612 99.8401 241.905 99.7619 242.163 99.6055C242.423 99.4462 242.629 99.2362 242.78 98.9756C242.93 98.7149 243.006 98.4296 243.006 98.1197C243.006 97.7953 242.926 97.5042 242.767 97.2465C242.607 96.9858 242.397 96.7802 242.137 96.6295C241.876 96.476 241.592 96.3993 241.285 96.3993C240.955 96.3993 240.664 96.4775 240.412 96.6339C240.16 96.7903 239.956 96.9988 239.799 97.2595L239.426 97.0423L239.617 93.8274H242.919V94.1923H239.712L239.982 93.9403L239.791 97.0336L239.652 96.8337C239.84 96.5904 240.076 96.3964 240.36 96.2516C240.644 96.1068 240.952 96.0344 241.285 96.0344C241.665 96.0344 242.012 96.1285 242.328 96.3167C242.644 96.505 242.896 96.757 243.084 97.0727C243.275 97.3884 243.371 97.7374 243.371 98.1197C243.371 98.4962 243.276 98.8438 243.088 99.1624C242.9 99.4781 242.648 99.733 242.332 99.927C242.016 100.118 241.667 100.214 241.285 100.214ZM244.763 100.083L247.161 94.201H244.155V93.8274H247.552V94.201L245.154 100.083H244.763ZM247.82 100.083V99.5621H248.341V100.083H247.82ZM251.545 100.214C251.198 100.214 250.879 100.128 250.59 99.9574C250.303 99.7836 250.073 99.5534 249.899 99.2667C249.728 98.977 249.642 98.6584 249.642 98.3109V95.5999C249.642 95.2523 249.728 94.9352 249.899 94.6485C250.073 94.3588 250.303 94.1286 250.59 93.9577C250.879 93.7839 251.198 93.697 251.545 93.697C251.893 93.697 252.21 93.7839 252.497 93.9577C252.786 94.1286 253.017 94.3588 253.188 94.6485C253.361 94.9352 253.448 95.2523 253.448 95.5999V98.3109C253.448 98.6584 253.361 98.977 253.188 99.2667C253.017 99.5534 252.786 99.7836 252.497 99.9574C252.21 100.128 251.893 100.214 251.545 100.214ZM251.545 99.8488C251.826 99.8488 252.083 99.7793 252.314 99.6403C252.549 99.5013 252.736 99.3159 252.875 99.0842C253.014 98.8496 253.083 98.5918 253.083 98.3109V95.5999C253.083 95.319 253.014 95.0626 252.875 94.8309C252.736 94.5963 252.549 94.4095 252.314 94.2705C252.083 94.1315 251.826 94.062 251.545 94.062C251.264 94.062 251.007 94.1315 250.772 94.2705C250.54 94.4095 250.355 94.5963 250.216 94.8309C250.077 95.0626 250.007 95.319 250.007 95.5999V98.3109C250.007 98.5918 250.077 98.8496 250.216 99.0842C250.355 99.3159 250.54 99.5013 250.772 99.6403C251.007 99.7793 251.264 99.8488 251.545 99.8488ZM256.569 100.214C256.221 100.214 255.903 100.128 255.613 99.9574C255.326 99.7836 255.096 99.5534 254.922 99.2667C254.751 98.977 254.666 98.6584 254.666 98.3109V95.5999C254.666 95.2523 254.751 94.9352 254.922 94.6485C255.096 94.3588 255.326 94.1286 255.613 93.9577C255.903 93.7839 256.221 93.697 256.569 93.697C256.916 93.697 257.233 93.7839 257.52 93.9577C257.81 94.1286 258.04 94.3588 258.211 94.6485C258.385 94.9352 258.472 95.2523 258.472 95.5999V98.3109C258.472 98.6584 258.385 98.977 258.211 99.2667C258.04 99.5534 257.81 99.7836 257.52 99.9574C257.233 100.128 256.916 100.214 256.569 100.214ZM256.569 99.8488C256.85 99.8488 257.106 99.7793 257.338 99.6403C257.572 99.5013 257.759 99.3159 257.898 99.0842C258.037 98.8496 258.107 98.5918 258.107 98.3109V95.5999C258.107 95.319 258.037 95.0626 257.898 94.8309C257.759 94.5963 257.572 94.4095 257.338 94.2705C257.106 94.1315 256.85 94.062 256.569 94.062C256.288 94.062 256.03 94.1315 255.795 94.2705C255.564 94.4095 255.378 94.5963 255.239 94.8309C255.1 95.0626 255.031 95.319 255.031 95.5999V98.3109C255.031 98.5918 255.1 98.8496 255.239 99.0842C255.378 99.3159 255.564 99.5013 255.795 99.6403C256.03 99.7793 256.288 99.8488 256.569 99.8488Z" fill="black"/>
<path d="M224.919 111.083V106.615H225.478L227.809 110.106V106.615H228.367V111.083H227.809L225.478 107.589V111.083H224.919ZM230.687 111.177C230.358 111.177 230.071 111.104 229.824 110.959C229.58 110.812 229.39 110.609 229.253 110.348C229.117 110.085 229.049 109.779 229.049 109.429C229.049 109.063 229.116 108.747 229.25 108.48C229.385 108.211 229.572 108.004 229.812 107.859C230.054 107.712 230.337 107.639 230.662 107.639C231 107.639 231.286 107.716 231.522 107.872C231.76 108.027 231.938 108.248 232.056 108.536C232.176 108.823 232.227 109.166 232.211 109.563H231.652V109.364C231.646 108.953 231.562 108.645 231.401 108.443C231.239 108.238 231 108.135 230.681 108.135C230.34 108.135 230.08 108.245 229.902 108.464C229.724 108.684 229.635 108.998 229.635 109.408C229.635 109.803 229.724 110.109 229.902 110.326C230.08 110.543 230.333 110.652 230.662 110.652C230.884 110.652 231.076 110.601 231.239 110.5C231.403 110.399 231.531 110.253 231.624 110.062L232.155 110.246C232.025 110.541 231.828 110.771 231.565 110.934C231.305 111.096 231.012 111.177 230.687 111.177ZM229.449 109.563V109.119H231.925V109.563H229.449ZM234.773 111.083C234.574 111.123 234.378 111.138 234.183 111.13C233.991 111.124 233.819 111.085 233.668 111.015C233.517 110.943 233.402 110.831 233.324 110.68C233.258 110.548 233.221 110.414 233.215 110.28C233.211 110.143 233.209 109.989 233.209 109.817V106.801H233.761V109.792C233.761 109.929 233.762 110.046 233.764 110.143C233.769 110.24 233.79 110.324 233.83 110.395C233.904 110.527 234.022 110.604 234.183 110.627C234.347 110.65 234.543 110.644 234.773 110.609V111.083ZM232.529 108.188V107.732H234.773V108.188H232.529ZM237.962 111.173C237.563 111.173 237.235 111.087 236.978 110.913C236.724 110.737 236.568 110.492 236.51 110.177L237.074 110.087C237.12 110.269 237.224 110.414 237.388 110.522C237.551 110.627 237.754 110.68 237.996 110.68C238.226 110.68 238.406 110.632 238.536 110.537C238.666 110.442 238.732 110.313 238.732 110.149C238.732 110.054 238.71 109.978 238.666 109.92C238.623 109.86 238.533 109.804 238.396 109.752C238.262 109.7 238.058 109.638 237.785 109.566C237.489 109.487 237.257 109.406 237.087 109.321C236.917 109.236 236.796 109.138 236.724 109.026C236.651 108.914 236.615 108.779 236.615 108.619C236.615 108.423 236.669 108.251 236.777 108.104C236.884 107.955 237.034 107.841 237.227 107.76C237.421 107.679 237.646 107.639 237.903 107.639C238.157 107.639 238.385 107.679 238.586 107.76C238.786 107.841 238.948 107.955 239.07 108.104C239.194 108.251 239.267 108.423 239.29 108.619L238.725 108.722C238.698 108.542 238.612 108.4 238.465 108.297C238.32 108.193 238.133 108.138 237.903 108.132C237.686 108.124 237.509 108.162 237.372 108.247C237.238 108.332 237.171 108.447 237.171 108.592C237.171 108.672 237.195 108.742 237.245 108.799C237.297 108.857 237.391 108.912 237.528 108.964C237.666 109.016 237.867 109.075 238.13 109.141C238.425 109.215 238.658 109.297 238.828 109.386C238.999 109.473 239.122 109.576 239.194 109.696C239.266 109.814 239.303 109.96 239.303 110.134C239.303 110.457 239.184 110.711 238.946 110.897C238.708 111.081 238.38 111.173 237.962 111.173ZM240.94 111.177C240.689 111.177 240.479 111.131 240.31 111.04C240.142 110.947 240.015 110.825 239.928 110.674C239.843 110.523 239.801 110.357 239.801 110.177C239.801 110.001 239.834 109.849 239.9 109.721C239.968 109.591 240.063 109.483 240.186 109.398C240.308 109.311 240.453 109.243 240.623 109.194C240.782 109.15 240.96 109.113 241.157 109.082C241.355 109.049 241.556 109.019 241.759 108.992C241.962 108.965 242.151 108.939 242.327 108.914L242.128 109.029C242.134 108.731 242.074 108.511 241.948 108.368C241.824 108.225 241.609 108.154 241.303 108.154C241.1 108.154 240.922 108.201 240.769 108.294C240.618 108.385 240.511 108.534 240.449 108.74L239.925 108.582C240.006 108.288 240.162 108.058 240.393 107.89C240.625 107.723 240.93 107.639 241.309 107.639C241.613 107.639 241.874 107.694 242.091 107.803C242.31 107.911 242.467 108.074 242.563 108.294C242.61 108.397 242.64 108.51 242.653 108.632C242.665 108.752 242.671 108.878 242.671 109.01V111.083H242.181V110.28L242.296 110.354C242.17 110.625 241.993 110.83 241.765 110.969C241.54 111.107 241.264 111.177 240.94 111.177ZM241.023 110.714C241.222 110.714 241.394 110.679 241.539 110.609C241.685 110.536 241.803 110.442 241.892 110.326C241.981 110.208 242.039 110.08 242.066 109.941C242.097 109.838 242.114 109.723 242.116 109.597C242.12 109.469 242.122 109.37 242.122 109.302L242.314 109.386C242.134 109.411 241.957 109.435 241.784 109.457C241.61 109.48 241.445 109.505 241.29 109.532C241.135 109.557 240.995 109.587 240.871 109.622C240.78 109.651 240.694 109.688 240.614 109.734C240.535 109.779 240.471 109.838 240.421 109.91C240.374 109.981 240.35 110.069 240.35 110.174C240.35 110.265 240.373 110.352 240.418 110.435C240.466 110.518 240.538 110.585 240.636 110.637C240.735 110.688 240.864 110.714 241.023 110.714ZM243.54 111.083V106.522H244.092V111.083H243.54ZM246.476 111.177C246.147 111.177 245.859 111.104 245.613 110.959C245.369 110.812 245.179 110.609 245.042 110.348C244.906 110.085 244.837 109.779 244.837 109.429C244.837 109.063 244.905 108.747 245.039 108.48C245.174 108.211 245.361 108.004 245.601 107.859C245.843 107.712 246.126 107.639 246.451 107.639C246.788 107.639 247.075 107.716 247.311 107.872C247.549 108.027 247.726 108.248 247.844 108.536C247.964 108.823 248.016 109.166 248 109.563H247.441V109.364C247.435 108.953 247.351 108.645 247.19 108.443C247.028 108.238 246.788 108.135 246.47 108.135C246.128 108.135 245.869 108.245 245.691 108.464C245.513 108.684 245.424 108.998 245.424 109.408C245.424 109.803 245.513 110.109 245.691 110.326C245.869 110.543 246.122 110.652 246.451 110.652C246.672 110.652 246.865 110.601 247.028 110.5C247.192 110.399 247.32 110.253 247.413 110.062L247.944 110.246C247.813 110.541 247.617 110.771 247.354 110.934C247.093 111.096 246.801 111.177 246.476 111.177ZM245.238 109.563V109.119H247.714V109.563H245.238ZM249.957 111.173C249.557 111.173 249.229 111.087 248.973 110.913C248.718 110.737 248.562 110.492 248.504 110.177L249.069 110.087C249.115 110.269 249.219 110.414 249.382 110.522C249.546 110.627 249.749 110.68 249.991 110.68C250.22 110.68 250.4 110.632 250.531 110.537C250.661 110.442 250.726 110.313 250.726 110.149C250.726 110.054 250.704 109.978 250.661 109.92C250.618 109.86 250.528 109.804 250.391 109.752C250.257 109.7 250.053 109.638 249.78 109.566C249.484 109.487 249.251 109.406 249.081 109.321C248.912 109.236 248.791 109.138 248.718 109.026C248.646 108.914 248.61 108.779 248.61 108.619C248.61 108.423 248.664 108.251 248.771 108.104C248.879 107.955 249.029 107.841 249.221 107.76C249.416 107.679 249.641 107.639 249.898 107.639C250.152 107.639 250.38 107.679 250.58 107.76C250.781 107.841 250.942 107.955 251.064 108.104C251.189 108.251 251.262 108.423 251.285 108.619L250.72 108.722C250.693 108.542 250.606 108.4 250.459 108.297C250.314 108.193 250.127 108.138 249.898 108.132C249.68 108.124 249.504 108.162 249.367 108.247C249.233 108.332 249.165 108.447 249.165 108.592C249.165 108.672 249.19 108.742 249.24 108.799C249.291 108.857 249.386 108.912 249.522 108.964C249.661 109.016 249.861 109.075 250.124 109.141C250.42 109.215 250.653 109.297 250.822 109.386C250.994 109.473 251.116 109.576 251.189 109.696C251.261 109.814 251.297 109.96 251.297 110.134C251.297 110.457 251.178 110.711 250.94 110.897C250.702 111.081 250.374 111.173 249.957 111.173Z" fill="#316CE6"/>
</g>
</g>
<defs>
<filter id="filter0_d_2_1365" x="232.12" y="122.496" width="12.4128" height="12.3894" filterUnits="userSpaceOnUse" color-interpolation-filters="sRGB">
<feFlood flood-opacity="0" result="BackgroundImageFix"/>
<feColorMatrix in="SourceAlpha" type="matrix" values="0 0 0 0 0 0 0 0 0 0 0 0 0 0 0 0 0 0 127 0" result="hardAlpha"/>
<feOffset dy="1.24128"/>
<feGaussianBlur stdDeviation="1.24128"/>
<feComposite in2="hardAlpha" operator="out"/>
<feColorMatrix type="matrix" values="0 0 0 0 0.101961 0 0 0 0 0.12549 0 0 0 0 0.172549 0 0 0 0.05 0"/>
<feBlend mode="normal" in2="BackgroundImageFix" result="effect1_dropShadow_2_1365"/>
<feBlend mode="normal" in="SourceGraphic" in2="effect1_dropShadow_2_1365" result="shape"/>
</filter>
<filter id="filter1_d_2_1365" x="186.725" y="65.2578" width="102.582" height="83.5816" filterUnits="userSpaceOnUse" color-interpolation-filters="sRGB">
<feFlood flood-opacity="0" result="BackgroundImageFix"/>
<feColorMatrix in="SourceAlpha" type="matrix" values="0 0 0 0 0 0 0 0 0 0 0 0 0 0 0 0 0 0 127 0" result="hardAlpha"/>
<feOffset dy="4.96513"/>
<feGaussianBlur stdDeviation="12.4128"/>
<feComposite in2="hardAlpha" operator="out"/>
<feColorMatrix type="matrix" values="0 0 0 0 0.101961 0 0 0 0 0.12549 0 0 0 0 0.172549 0 0 0 0.09 0"/>
<feBlend mode="normal" in2="BackgroundImageFix" result="effect1_dropShadow_2_1365"/>
<feBlend mode="normal" in="SourceGraphic" in2="effect1_dropShadow_2_1365" result="shape"/>
</filter>
<linearGradient id="paint0_linear_2_1365" x1="238.326" y1="70.3134" x2="238.326" y2="231.06" gradientUnits="userSpaceOnUse">
<stop stop-color="#50CD89"/>
<stop offset="1" stop-color="white"/>
</linearGradient>
<clipPath id="clip0_2_1365">
<rect width="445" height="245" fill="white"/>
</clipPath>
</defs>
</svg>
