<svg width="40" height="43" viewBox="0 0 40 43" fill="none" xmlns="http://www.w3.org/2000/svg">
    <path fill-rule="evenodd" clip-rule="evenodd"
          d="M13.3834 40.1274C9.56403 39.0757 5.56522 38.5452 1.68612 38.0592C0.850621 37.9573 0.0749171 38.5259 0.0152387 39.3269C-0.104118 40.1286 0.493016 40.8617 1.26884 40.9636C5.02858 41.4314 8.90733 41.9321 12.5477 42.9445C13.3235 43.1641 14.1594 42.7121 14.3981 41.9345C14.6368 41.1574 14.1593 40.3476 13.3834 40.1274Z"
          fill="#316ce6"/>
    <path fill-rule="evenodd" clip-rule="evenodd"
          d="M24.9606 25.2172C18.8137 19.0623 11.891 13.6997 5.86347 7.37973C5.32636 6.78948 4.37151 6.75786 3.77472 7.30888C3.17794 7.86048 3.11849 8.78801 3.71528 9.37826C9.7428 15.7164 16.6655 21.0966 22.8124 27.2696C23.4092 27.8458 24.3638 27.854 24.9606 27.2872C25.4977 26.7209 25.5574 25.7934 24.9606 25.2172Z"
          fill="#316ce6"/>
    <path fill-rule="evenodd" clip-rule="evenodd"
          d="M36.4793 1.54341C36.6584 5.06616 36.837 8.58891 37.0161 12.1123C37.0161 12.9192 37.7326 13.5422 38.5681 13.503C39.4036 13.4631 40 12.7763 40 11.9688C39.821 8.44018 39.6423 4.91216 39.4632 1.38413C39.4036 0.577224 38.6873 -0.0417174 37.8518 0.00219986C37.076 0.0461172 36.4196 0.737085 36.4793 1.54341Z"
          fill="#316ce6"/>
</svg>
