<svg width="48" height="47" viewBox="0 0 48 47" fill="none" xmlns="http://www.w3.org/2000/svg">
    <path d="M23.5768 47C36.5979 47 47.1536 36.4787 47.1536 23.5C47.1536 10.5213 36.5979 0 23.5768 0C10.5557 0 0 10.5213 0 23.5C0 36.4787 10.5557 47 23.5768 47Z"
          fill="#316ce6"/>
    <path d="M32.476 34.9035L26.2621 25.8516C29.7839 25.0996 32.2845 21.7778 32.0361 18.0902C32.0361 14.0414 28.7308 10.7469 24.6687 10.7469C24.2083 10.9241 14.4862 10.2652 14.6207 11.2263C14.4657 11.5217 14.4862 11.8784 14.6732 12.1533C18.3545 17.5109 26.408 29.2574 30.0233 34.515H26.0114C26.0091 34.5127 16.1594 20.1601 16.1548 20.1601C15.8197 19.6602 15.0242 19.6534 14.6845 20.151C14.5774 20.3032 14.5181 20.485 14.5159 20.6713V35.4125C14.5159 35.9078 14.9193 36.3099 15.4163 36.3099H25.5372H31.7329C32.4327 36.3304 32.8954 35.4716 32.476 34.9035ZM17.1259 12.5441C21.8786 12.7145 30.005 10.99 30.2353 18.0925C30.4928 21.1825 28.2316 23.9794 25.1383 24.2157L17.1259 12.5441ZM16.319 34.5127V23.5705L23.8299 34.5127H16.319Z"
          fill="white"/>
</svg>
